G04 (created by PCBNEW (22-Jun-2014 BZR 4027)-stable) date Sun 11 Feb 2018 06:49:22 AM CST*
%MOIN*%
G04 Gerber Fmt 3.4, Leading zero omitted, Abs format*
%FSLAX34Y34*%
G01*
G70*
G90*
G04 APERTURE LIST*
%ADD10C,0.00590551*%
%ADD11R,0.069X0.069*%
%ADD12O,0.069X0.069*%
%ADD13C,0.069*%
%ADD14O,0.059X0.059*%
%ADD15R,0.059X0.059*%
%ADD16R,0.064X0.059*%
%ADD17R,0.059X0.064*%
%ADD18O,0.069X0.1035*%
G04 APERTURE END LIST*
G54D10*
G54D11*
X63000Y-75500D03*
G54D12*
X62000Y-75500D03*
X61000Y-75500D03*
G54D11*
X74500Y-64500D03*
G54D13*
X75500Y-64500D03*
X76500Y-64500D03*
X77500Y-64500D03*
G54D14*
X70500Y-74000D03*
X70000Y-73500D03*
X70500Y-73000D03*
G54D11*
X77500Y-76000D03*
G54D13*
X77500Y-75000D03*
G54D11*
X46500Y-64500D03*
G54D12*
X46500Y-65500D03*
G54D15*
X54125Y-69625D03*
G54D14*
X55125Y-69625D03*
X56125Y-69625D03*
X57125Y-69625D03*
X57125Y-66625D03*
X56125Y-66625D03*
X54125Y-66625D03*
X55125Y-66625D03*
G54D15*
X71000Y-67500D03*
G54D14*
X71000Y-66500D03*
X71000Y-65500D03*
X71000Y-64500D03*
X68000Y-64500D03*
X68000Y-65500D03*
X68000Y-67500D03*
X68000Y-66500D03*
G54D15*
X59250Y-65250D03*
G54D14*
X62250Y-65250D03*
G54D16*
X58300Y-70750D03*
X59450Y-70750D03*
X66700Y-64500D03*
X65550Y-64500D03*
X70700Y-72000D03*
X69550Y-72000D03*
G54D17*
X68000Y-68550D03*
X68000Y-69700D03*
G54D16*
X70700Y-75000D03*
X69550Y-75000D03*
X54450Y-65500D03*
X53300Y-65500D03*
X52950Y-68750D03*
X51800Y-68750D03*
G54D17*
X66750Y-70550D03*
X66750Y-71700D03*
G54D16*
X56050Y-65500D03*
X57200Y-65500D03*
G54D14*
X64750Y-74000D03*
X64750Y-70000D03*
X66750Y-69500D03*
X66750Y-65500D03*
X57125Y-74625D03*
X57125Y-70625D03*
X56125Y-74625D03*
X56125Y-70625D03*
X55125Y-74625D03*
X55125Y-70625D03*
X54125Y-70625D03*
X54125Y-74625D03*
X53125Y-74625D03*
X53125Y-70625D03*
G54D18*
X73500Y-66922D03*
X73500Y-73577D03*
X75500Y-73577D03*
X75500Y-66922D03*
X77500Y-66922D03*
X77500Y-73577D03*
X46500Y-67172D03*
X46500Y-73827D03*
X48500Y-73827D03*
X48500Y-67172D03*
X50500Y-67172D03*
X50500Y-73827D03*
G54D14*
X48000Y-64500D03*
X52000Y-64500D03*
X58750Y-66250D03*
X62750Y-66250D03*
M02*
