M48
;DRILL file {Pcbnew (22-Jun-2014 BZR 4027)-stable} date Sun 11 Feb 2018 07:20:59 AM CST
;FORMAT={-:-/ absolute / inch / decimal}
FMAT,2
INCH,TZ
T1C0.025
T2C0.032
T3C0.040
T4C0.048
%
G90
G05
M72
T1
X5.375Y-7.25
X5.45Y-6.75
X5.45Y-7.25
X5.575Y-7.25
X5.6Y-6.75
X5.65Y-7.25
X5.975Y-6.625
X5.975Y-6.825
X6.Y-7.25
X6.1Y-7.25
X6.3Y-6.85
X6.45Y-6.7
X6.9Y-6.65
X6.9Y-6.75
T2
X4.8Y-6.45
X5.175Y-6.875
X5.2Y-6.45
X5.3Y-6.875
X5.3125Y-7.0625
X5.3125Y-7.4625
X5.325Y-6.55
X5.4125Y-6.6625
X5.4125Y-6.9625
X5.4125Y-7.0625
X5.4125Y-7.4625
X5.45Y-6.55
X5.5125Y-6.6625
X5.5125Y-6.9625
X5.5125Y-7.0625
X5.5125Y-7.4625
X5.6Y-6.55
X5.6125Y-6.6625
X5.6125Y-6.9625
X5.6125Y-7.0625
X5.6125Y-7.4625
X5.7125Y-6.6625
X5.7125Y-6.9625
X5.7125Y-7.0625
X5.7125Y-7.4625
X5.725Y-6.55
X5.825Y-7.075
X5.875Y-6.625
X5.925Y-6.525
X5.95Y-7.075
X6.225Y-6.525
X6.275Y-6.625
X6.475Y-7.
X6.475Y-7.4
X6.55Y-6.45
X6.675Y-6.45
X6.675Y-6.55
X6.675Y-6.95
X6.675Y-7.05
X6.675Y-7.175
X6.8Y-6.45
X6.8Y-6.55
X6.8Y-6.65
X6.8Y-6.75
X6.8Y-6.85
X6.8Y-6.975
X6.95Y-7.2
X6.95Y-7.5
X7.Y-7.35
X7.05Y-7.3
X7.05Y-7.4
X7.075Y-7.2
X7.075Y-7.5
X7.1Y-6.45
X7.1Y-6.55
X7.1Y-6.65
X7.1Y-6.75
T3
X4.65Y-6.45
X4.65Y-6.55
X4.65Y-6.7
X4.65Y-7.4
X4.85Y-6.7
X4.85Y-7.4
X5.05Y-6.7
X5.05Y-7.4
X6.1Y-7.55
X6.2Y-7.55
X6.3Y-7.55
X7.275Y-6.675
X7.275Y-7.375
X7.45Y-6.45
X7.475Y-6.675
X7.475Y-7.375
X7.55Y-6.45
X7.65Y-6.45
X7.75Y-6.45
X7.75Y-6.675
X7.75Y-7.375
X7.75Y-7.5
X7.75Y-7.6
T4
X7.615Y-7.1
X7.615Y-7.5
T0
M30
