G04 (created by PCBNEW (22-Jun-2014 BZR 4027)-stable) date Sun 11 Feb 2018 07:20:56 AM CST*
%MOIN*%
G04 Gerber Fmt 3.4, Leading zero omitted, Abs format*
%FSLAX34Y34*%
G01*
G70*
G90*
G04 APERTURE LIST*
%ADD10C,0.00590551*%
%ADD11R,0.069X0.069*%
%ADD12O,0.069X0.069*%
%ADD13C,0.069*%
%ADD14O,0.059X0.059*%
%ADD15R,0.059X0.059*%
%ADD16R,0.064X0.059*%
%ADD17R,0.059X0.064*%
%ADD18O,0.069X0.1035*%
%ADD19C,0.035*%
%ADD20C,0.02*%
%ADD21C,0.01*%
G04 APERTURE END LIST*
G54D10*
G54D11*
X63000Y-75500D03*
G54D12*
X62000Y-75500D03*
X61000Y-75500D03*
G54D11*
X74500Y-64500D03*
G54D13*
X75500Y-64500D03*
X76500Y-64500D03*
X77500Y-64500D03*
G54D14*
X70500Y-74000D03*
X70000Y-73500D03*
X70500Y-73000D03*
G54D11*
X77500Y-76000D03*
G54D13*
X77500Y-75000D03*
G54D11*
X46500Y-64500D03*
G54D12*
X46500Y-65500D03*
G54D15*
X54125Y-69625D03*
G54D14*
X55125Y-69625D03*
X56125Y-69625D03*
X57125Y-69625D03*
X57125Y-66625D03*
X56125Y-66625D03*
X54125Y-66625D03*
X55125Y-66625D03*
G54D15*
X71000Y-67500D03*
G54D14*
X71000Y-66500D03*
X71000Y-65500D03*
X71000Y-64500D03*
X68000Y-64500D03*
X68000Y-65500D03*
X68000Y-67500D03*
X68000Y-66500D03*
G54D15*
X59250Y-65250D03*
G54D14*
X62250Y-65250D03*
G54D16*
X58300Y-70750D03*
X59450Y-70750D03*
X66700Y-64500D03*
X65550Y-64500D03*
X70700Y-72000D03*
X69550Y-72000D03*
G54D17*
X68000Y-68550D03*
X68000Y-69700D03*
G54D16*
X70700Y-75000D03*
X69550Y-75000D03*
X54450Y-65500D03*
X53300Y-65500D03*
X52950Y-68750D03*
X51800Y-68750D03*
G54D17*
X66750Y-70550D03*
X66750Y-71700D03*
G54D16*
X56050Y-65500D03*
X57200Y-65500D03*
G54D14*
X64750Y-74000D03*
X64750Y-70000D03*
X66750Y-69500D03*
X66750Y-65500D03*
X57125Y-74625D03*
X57125Y-70625D03*
X56125Y-74625D03*
X56125Y-70625D03*
X55125Y-74625D03*
X55125Y-70625D03*
X54125Y-70625D03*
X54125Y-74625D03*
X53125Y-74625D03*
X53125Y-70625D03*
G54D18*
X72750Y-66922D03*
X72750Y-73577D03*
X74750Y-73577D03*
X74750Y-66922D03*
X77500Y-66922D03*
X77500Y-73577D03*
X46500Y-67172D03*
X46500Y-73827D03*
X48500Y-73827D03*
X48500Y-67172D03*
X50500Y-67172D03*
X50500Y-73827D03*
G54D14*
X48000Y-64500D03*
X52000Y-64500D03*
X58750Y-66250D03*
X62750Y-66250D03*
G54D11*
X76150Y-71000D03*
G54D12*
X76150Y-75000D03*
G54D19*
X59750Y-68250D03*
X59750Y-66250D03*
X53750Y-72500D03*
X54500Y-72500D03*
X55750Y-72500D03*
X56500Y-72500D03*
X60000Y-72500D03*
X61000Y-72500D03*
X63000Y-68500D03*
X64500Y-67000D03*
X69000Y-67500D03*
X69000Y-66500D03*
X56000Y-67500D03*
X54500Y-67500D03*
G54D20*
X59750Y-66250D02*
X59750Y-68250D01*
X54500Y-72500D02*
X53750Y-72500D01*
X56500Y-72500D02*
X55750Y-72500D01*
X61000Y-72500D02*
X60000Y-72500D01*
X64500Y-67000D02*
X63000Y-68500D01*
G54D21*
X69000Y-67500D02*
X69000Y-66500D01*
X54500Y-67500D02*
X56000Y-67500D01*
G54D10*
G36*
X78200Y-76229D02*
X78099Y-76329D01*
X78099Y-64592D01*
X78089Y-64356D01*
X78018Y-64185D01*
X77918Y-64152D01*
X77570Y-64500D01*
X77918Y-64847D01*
X78018Y-64814D01*
X78099Y-64592D01*
X78099Y-76329D01*
X78095Y-76334D01*
X78095Y-74882D01*
X78095Y-74881D01*
X78095Y-73765D01*
X78095Y-73389D01*
X78095Y-67110D01*
X78095Y-66734D01*
X78049Y-66507D01*
X77920Y-66314D01*
X77847Y-66265D01*
X77847Y-64918D01*
X77500Y-64570D01*
X77152Y-64918D01*
X77185Y-65018D01*
X77407Y-65099D01*
X77643Y-65089D01*
X77814Y-65018D01*
X77847Y-64918D01*
X77847Y-66265D01*
X77727Y-66185D01*
X77500Y-66139D01*
X77272Y-66185D01*
X77079Y-66314D01*
X76950Y-66507D01*
X76905Y-66734D01*
X76905Y-67110D01*
X76950Y-67337D01*
X77079Y-67530D01*
X77272Y-67659D01*
X77500Y-67705D01*
X77727Y-67659D01*
X77920Y-67530D01*
X78049Y-67337D01*
X78095Y-67110D01*
X78095Y-73389D01*
X78049Y-73162D01*
X77920Y-72969D01*
X77727Y-72840D01*
X77500Y-72794D01*
X77272Y-72840D01*
X77079Y-72969D01*
X76950Y-73162D01*
X76905Y-73389D01*
X76905Y-73765D01*
X76950Y-73992D01*
X77079Y-74185D01*
X77272Y-74314D01*
X77500Y-74360D01*
X77727Y-74314D01*
X77920Y-74185D01*
X78049Y-73992D01*
X78095Y-73765D01*
X78095Y-74881D01*
X78004Y-74663D01*
X77837Y-74495D01*
X77618Y-74405D01*
X77382Y-74404D01*
X77163Y-74495D01*
X76995Y-74662D01*
X76905Y-74881D01*
X76904Y-75117D01*
X76995Y-75336D01*
X77075Y-75417D01*
X77013Y-75443D01*
X76942Y-75513D01*
X76904Y-75605D01*
X76905Y-75887D01*
X76967Y-75950D01*
X77450Y-75950D01*
X77450Y-75942D01*
X77550Y-75942D01*
X77550Y-75950D01*
X78032Y-75950D01*
X78095Y-75887D01*
X78095Y-75605D01*
X78057Y-75513D01*
X77986Y-75443D01*
X77924Y-75417D01*
X78004Y-75337D01*
X78094Y-75118D01*
X78095Y-74882D01*
X78095Y-76334D01*
X78095Y-76334D01*
X78095Y-76112D01*
X78032Y-76050D01*
X77550Y-76050D01*
X77550Y-76057D01*
X77450Y-76057D01*
X77450Y-76050D01*
X76967Y-76050D01*
X76905Y-76112D01*
X76904Y-76394D01*
X76927Y-76450D01*
X76745Y-76450D01*
X76745Y-71295D01*
X76745Y-70605D01*
X76707Y-70513D01*
X76636Y-70443D01*
X76544Y-70405D01*
X76445Y-70404D01*
X75755Y-70404D01*
X75663Y-70442D01*
X75593Y-70513D01*
X75555Y-70605D01*
X75554Y-70704D01*
X75554Y-71394D01*
X75592Y-71486D01*
X75663Y-71556D01*
X75755Y-71594D01*
X75854Y-71595D01*
X76544Y-71595D01*
X76636Y-71557D01*
X76706Y-71486D01*
X76744Y-71394D01*
X76745Y-71295D01*
X76745Y-76450D01*
X76745Y-76450D01*
X76745Y-75011D01*
X76745Y-74988D01*
X76699Y-74760D01*
X76570Y-74567D01*
X76377Y-74438D01*
X76150Y-74393D01*
X75922Y-74438D01*
X75729Y-74567D01*
X75600Y-74760D01*
X75555Y-74988D01*
X75555Y-75011D01*
X75600Y-75239D01*
X75729Y-75432D01*
X75922Y-75561D01*
X76150Y-75606D01*
X76377Y-75561D01*
X76570Y-75432D01*
X76699Y-75239D01*
X76745Y-75011D01*
X76745Y-76450D01*
X75345Y-76450D01*
X75345Y-73765D01*
X75345Y-73389D01*
X75345Y-67110D01*
X75345Y-66734D01*
X75299Y-66507D01*
X75170Y-66314D01*
X74977Y-66185D01*
X74750Y-66139D01*
X74522Y-66185D01*
X74329Y-66314D01*
X74200Y-66507D01*
X74155Y-66734D01*
X74155Y-67110D01*
X74200Y-67337D01*
X74329Y-67530D01*
X74522Y-67659D01*
X74750Y-67705D01*
X74977Y-67659D01*
X75170Y-67530D01*
X75299Y-67337D01*
X75345Y-67110D01*
X75345Y-73389D01*
X75299Y-73162D01*
X75170Y-72969D01*
X74977Y-72840D01*
X74750Y-72794D01*
X74522Y-72840D01*
X74329Y-72969D01*
X74200Y-73162D01*
X74155Y-73389D01*
X74155Y-73765D01*
X74200Y-73992D01*
X74329Y-74185D01*
X74522Y-74314D01*
X74750Y-74360D01*
X74977Y-74314D01*
X75170Y-74185D01*
X75299Y-73992D01*
X75345Y-73765D01*
X75345Y-76450D01*
X73345Y-76450D01*
X73345Y-73765D01*
X73345Y-73389D01*
X73345Y-67110D01*
X73345Y-66734D01*
X73299Y-66507D01*
X73170Y-66314D01*
X72977Y-66185D01*
X72750Y-66139D01*
X72522Y-66185D01*
X72329Y-66314D01*
X72200Y-66507D01*
X72155Y-66734D01*
X72155Y-67110D01*
X72200Y-67337D01*
X72329Y-67530D01*
X72522Y-67659D01*
X72750Y-67705D01*
X72977Y-67659D01*
X73170Y-67530D01*
X73299Y-67337D01*
X73345Y-67110D01*
X73345Y-73389D01*
X73299Y-73162D01*
X73170Y-72969D01*
X72977Y-72840D01*
X72750Y-72794D01*
X72522Y-72840D01*
X72329Y-72969D01*
X72200Y-73162D01*
X72155Y-73389D01*
X72155Y-73765D01*
X72200Y-73992D01*
X72329Y-74185D01*
X72522Y-74314D01*
X72750Y-74360D01*
X72977Y-74314D01*
X73170Y-74185D01*
X73299Y-73992D01*
X73345Y-73765D01*
X73345Y-76450D01*
X71545Y-76450D01*
X71545Y-67745D01*
X71545Y-67155D01*
X71507Y-67063D01*
X71436Y-66993D01*
X71344Y-66955D01*
X71297Y-66955D01*
X71385Y-66896D01*
X71503Y-66719D01*
X71545Y-66510D01*
X71545Y-66489D01*
X71503Y-66280D01*
X71385Y-66103D01*
X71229Y-66000D01*
X71385Y-65896D01*
X71503Y-65719D01*
X71545Y-65510D01*
X71545Y-65489D01*
X71503Y-65280D01*
X71385Y-65103D01*
X71219Y-64992D01*
X71278Y-64968D01*
X71436Y-64826D01*
X71528Y-64634D01*
X71480Y-64550D01*
X71050Y-64550D01*
X71050Y-64557D01*
X70950Y-64557D01*
X70950Y-64550D01*
X70519Y-64550D01*
X70471Y-64634D01*
X70563Y-64826D01*
X70721Y-64968D01*
X70780Y-64992D01*
X70614Y-65103D01*
X70496Y-65280D01*
X70455Y-65489D01*
X70455Y-65510D01*
X70496Y-65719D01*
X70614Y-65896D01*
X70770Y-66000D01*
X70614Y-66103D01*
X70496Y-66280D01*
X70455Y-66489D01*
X70455Y-66510D01*
X70496Y-66719D01*
X70614Y-66896D01*
X70702Y-66954D01*
X70655Y-66954D01*
X70563Y-66992D01*
X70493Y-67063D01*
X70455Y-67155D01*
X70454Y-67254D01*
X70454Y-67844D01*
X70492Y-67936D01*
X70563Y-68006D01*
X70655Y-68044D01*
X70754Y-68045D01*
X71344Y-68045D01*
X71436Y-68007D01*
X71506Y-67936D01*
X71544Y-67844D01*
X71545Y-67745D01*
X71545Y-76450D01*
X71270Y-76450D01*
X71270Y-75245D01*
X71270Y-74655D01*
X71232Y-74563D01*
X71161Y-74493D01*
X71069Y-74455D01*
X70970Y-74454D01*
X70797Y-74454D01*
X70885Y-74396D01*
X71003Y-74219D01*
X71045Y-74010D01*
X71045Y-73989D01*
X71003Y-73780D01*
X70885Y-73603D01*
X70729Y-73500D01*
X70885Y-73396D01*
X71003Y-73219D01*
X71045Y-73010D01*
X71045Y-72989D01*
X71003Y-72780D01*
X70885Y-72603D01*
X70797Y-72545D01*
X71069Y-72545D01*
X71161Y-72507D01*
X71231Y-72436D01*
X71269Y-72344D01*
X71270Y-72245D01*
X71270Y-71655D01*
X71232Y-71563D01*
X71161Y-71493D01*
X71069Y-71455D01*
X70970Y-71454D01*
X70330Y-71454D01*
X70238Y-71492D01*
X70168Y-71563D01*
X70130Y-71655D01*
X70129Y-71754D01*
X70129Y-72344D01*
X70167Y-72436D01*
X70238Y-72506D01*
X70251Y-72512D01*
X70120Y-72600D01*
X70120Y-72245D01*
X70120Y-71754D01*
X70119Y-71655D01*
X70081Y-71563D01*
X70011Y-71492D01*
X69919Y-71454D01*
X69662Y-71455D01*
X69600Y-71517D01*
X69600Y-71950D01*
X70057Y-71950D01*
X70120Y-71887D01*
X70120Y-71754D01*
X70120Y-72245D01*
X70120Y-72112D01*
X70057Y-72050D01*
X69600Y-72050D01*
X69600Y-72482D01*
X69662Y-72545D01*
X69919Y-72545D01*
X70011Y-72507D01*
X70081Y-72436D01*
X70119Y-72344D01*
X70120Y-72245D01*
X70120Y-72600D01*
X70114Y-72603D01*
X69996Y-72780D01*
X69961Y-72955D01*
X69949Y-72955D01*
X69949Y-73020D01*
X69865Y-72971D01*
X69721Y-73031D01*
X69563Y-73173D01*
X69500Y-73306D01*
X69500Y-72482D01*
X69500Y-72050D01*
X69500Y-71950D01*
X69500Y-71517D01*
X69437Y-71455D01*
X69425Y-71454D01*
X69425Y-67415D01*
X69360Y-67259D01*
X69300Y-67198D01*
X69300Y-66801D01*
X69360Y-66741D01*
X69424Y-66584D01*
X69425Y-66415D01*
X69360Y-66259D01*
X69241Y-66139D01*
X69084Y-66075D01*
X68915Y-66074D01*
X68759Y-66139D01*
X68639Y-66258D01*
X68575Y-66415D01*
X68574Y-66584D01*
X68639Y-66740D01*
X68700Y-66801D01*
X68700Y-67198D01*
X68639Y-67258D01*
X68575Y-67415D01*
X68574Y-67584D01*
X68639Y-67740D01*
X68758Y-67860D01*
X68915Y-67924D01*
X69084Y-67925D01*
X69240Y-67860D01*
X69360Y-67741D01*
X69424Y-67584D01*
X69425Y-67415D01*
X69425Y-71454D01*
X69180Y-71454D01*
X69088Y-71492D01*
X69018Y-71563D01*
X68980Y-71655D01*
X68979Y-71754D01*
X68980Y-71887D01*
X69042Y-71950D01*
X69500Y-71950D01*
X69500Y-72050D01*
X69042Y-72050D01*
X68980Y-72112D01*
X68979Y-72245D01*
X68980Y-72344D01*
X69018Y-72436D01*
X69088Y-72507D01*
X69180Y-72545D01*
X69437Y-72545D01*
X69500Y-72482D01*
X69500Y-73306D01*
X69471Y-73365D01*
X69519Y-73450D01*
X69950Y-73450D01*
X69950Y-73442D01*
X70050Y-73442D01*
X70050Y-73450D01*
X70057Y-73450D01*
X70057Y-73550D01*
X70050Y-73550D01*
X70050Y-73557D01*
X69950Y-73557D01*
X69950Y-73550D01*
X69519Y-73550D01*
X69471Y-73634D01*
X69563Y-73826D01*
X69721Y-73968D01*
X69865Y-74028D01*
X69949Y-73979D01*
X69949Y-74045D01*
X69950Y-74045D01*
X69961Y-74045D01*
X69996Y-74219D01*
X70114Y-74396D01*
X70251Y-74487D01*
X70238Y-74492D01*
X70168Y-74563D01*
X70130Y-74655D01*
X70129Y-74754D01*
X70129Y-75344D01*
X70167Y-75436D01*
X70238Y-75506D01*
X70330Y-75544D01*
X70429Y-75545D01*
X71069Y-75545D01*
X71161Y-75507D01*
X71231Y-75436D01*
X71269Y-75344D01*
X71270Y-75245D01*
X71270Y-76450D01*
X70120Y-76450D01*
X70120Y-75245D01*
X70120Y-74754D01*
X70119Y-74655D01*
X70081Y-74563D01*
X70011Y-74492D01*
X69950Y-74467D01*
X69919Y-74454D01*
X69662Y-74455D01*
X69600Y-74517D01*
X69600Y-74950D01*
X70057Y-74950D01*
X70120Y-74887D01*
X70120Y-74754D01*
X70120Y-75245D01*
X70120Y-75112D01*
X70057Y-75050D01*
X69600Y-75050D01*
X69600Y-75482D01*
X69662Y-75545D01*
X69919Y-75545D01*
X70011Y-75507D01*
X70081Y-75436D01*
X70119Y-75344D01*
X70120Y-75245D01*
X70120Y-76450D01*
X69500Y-76450D01*
X69500Y-75482D01*
X69500Y-75050D01*
X69500Y-74950D01*
X69500Y-74517D01*
X69437Y-74455D01*
X69180Y-74454D01*
X69088Y-74492D01*
X69018Y-74563D01*
X68980Y-74655D01*
X68979Y-74754D01*
X68980Y-74887D01*
X69042Y-74950D01*
X69500Y-74950D01*
X69500Y-75050D01*
X69042Y-75050D01*
X68980Y-75112D01*
X68979Y-75245D01*
X68980Y-75344D01*
X69018Y-75436D01*
X69088Y-75507D01*
X69180Y-75545D01*
X69437Y-75545D01*
X69500Y-75482D01*
X69500Y-76450D01*
X68545Y-76450D01*
X68545Y-70069D01*
X68545Y-69330D01*
X68507Y-69238D01*
X68436Y-69168D01*
X68344Y-69130D01*
X68245Y-69129D01*
X68112Y-69130D01*
X68050Y-69192D01*
X68050Y-69650D01*
X68482Y-69650D01*
X68545Y-69587D01*
X68545Y-69330D01*
X68545Y-70069D01*
X68545Y-69812D01*
X68482Y-69750D01*
X68050Y-69750D01*
X68050Y-70207D01*
X68112Y-70270D01*
X68245Y-70270D01*
X68344Y-70269D01*
X68436Y-70231D01*
X68507Y-70161D01*
X68545Y-70069D01*
X68545Y-76450D01*
X67950Y-76450D01*
X67950Y-70207D01*
X67950Y-69750D01*
X67950Y-69650D01*
X67950Y-69192D01*
X67887Y-69130D01*
X67754Y-69129D01*
X67655Y-69130D01*
X67563Y-69168D01*
X67492Y-69238D01*
X67454Y-69330D01*
X67455Y-69587D01*
X67517Y-69650D01*
X67950Y-69650D01*
X67950Y-69750D01*
X67517Y-69750D01*
X67455Y-69812D01*
X67454Y-70069D01*
X67492Y-70161D01*
X67563Y-70231D01*
X67655Y-70269D01*
X67754Y-70270D01*
X67887Y-70270D01*
X67950Y-70207D01*
X67950Y-76450D01*
X67295Y-76450D01*
X67295Y-72069D01*
X67295Y-71330D01*
X67295Y-70820D01*
X67295Y-70180D01*
X67257Y-70088D01*
X67186Y-70018D01*
X67094Y-69980D01*
X67009Y-69979D01*
X67135Y-69896D01*
X67253Y-69719D01*
X67295Y-69510D01*
X67295Y-69489D01*
X67253Y-69280D01*
X67135Y-69103D01*
X66958Y-68985D01*
X66750Y-68944D01*
X66541Y-68985D01*
X66364Y-69103D01*
X66246Y-69280D01*
X66205Y-69489D01*
X66205Y-69510D01*
X66246Y-69719D01*
X66364Y-69896D01*
X66490Y-69979D01*
X66405Y-69979D01*
X66313Y-70017D01*
X66243Y-70088D01*
X66205Y-70180D01*
X66204Y-70279D01*
X66204Y-70919D01*
X66242Y-71011D01*
X66313Y-71081D01*
X66405Y-71119D01*
X66504Y-71120D01*
X67094Y-71120D01*
X67186Y-71082D01*
X67256Y-71011D01*
X67294Y-70919D01*
X67295Y-70820D01*
X67295Y-71330D01*
X67257Y-71238D01*
X67186Y-71168D01*
X67094Y-71130D01*
X66995Y-71129D01*
X66862Y-71130D01*
X66800Y-71192D01*
X66800Y-71650D01*
X67232Y-71650D01*
X67295Y-71587D01*
X67295Y-71330D01*
X67295Y-72069D01*
X67295Y-71812D01*
X67232Y-71750D01*
X66800Y-71750D01*
X66800Y-72207D01*
X66862Y-72270D01*
X66995Y-72270D01*
X67094Y-72269D01*
X67186Y-72231D01*
X67257Y-72161D01*
X67295Y-72069D01*
X67295Y-76450D01*
X66700Y-76450D01*
X66700Y-72207D01*
X66700Y-71750D01*
X66700Y-71650D01*
X66700Y-71192D01*
X66637Y-71130D01*
X66504Y-71129D01*
X66405Y-71130D01*
X66313Y-71168D01*
X66242Y-71238D01*
X66204Y-71330D01*
X66205Y-71587D01*
X66267Y-71650D01*
X66700Y-71650D01*
X66700Y-71750D01*
X66267Y-71750D01*
X66205Y-71812D01*
X66204Y-72069D01*
X66242Y-72161D01*
X66313Y-72231D01*
X66405Y-72269D01*
X66504Y-72270D01*
X66637Y-72270D01*
X66700Y-72207D01*
X66700Y-76450D01*
X66120Y-76450D01*
X66120Y-64745D01*
X66120Y-64612D01*
X66057Y-64550D01*
X65600Y-64550D01*
X65600Y-64982D01*
X65662Y-65045D01*
X65919Y-65045D01*
X66011Y-65007D01*
X66081Y-64936D01*
X66119Y-64844D01*
X66120Y-64745D01*
X66120Y-76450D01*
X65500Y-76450D01*
X65500Y-64982D01*
X65500Y-64550D01*
X65042Y-64550D01*
X64980Y-64612D01*
X64979Y-64745D01*
X64980Y-64844D01*
X65018Y-64936D01*
X65088Y-65007D01*
X65180Y-65045D01*
X65437Y-65045D01*
X65500Y-64982D01*
X65500Y-76450D01*
X65295Y-76450D01*
X65295Y-74010D01*
X65295Y-73989D01*
X65295Y-70010D01*
X65295Y-69989D01*
X65253Y-69780D01*
X65135Y-69603D01*
X64958Y-69485D01*
X64925Y-69479D01*
X64925Y-66915D01*
X64860Y-66759D01*
X64741Y-66639D01*
X64584Y-66575D01*
X64415Y-66574D01*
X64259Y-66639D01*
X64139Y-66758D01*
X64075Y-66915D01*
X64075Y-66929D01*
X63305Y-67699D01*
X63305Y-66250D01*
X63264Y-66041D01*
X63146Y-65864D01*
X62969Y-65746D01*
X62778Y-65708D01*
X62778Y-65384D01*
X62778Y-65115D01*
X62718Y-64971D01*
X62576Y-64813D01*
X62384Y-64721D01*
X62300Y-64769D01*
X62300Y-65200D01*
X62729Y-65200D01*
X62778Y-65115D01*
X62778Y-65384D01*
X62729Y-65300D01*
X62300Y-65300D01*
X62300Y-65730D01*
X62384Y-65778D01*
X62576Y-65686D01*
X62718Y-65528D01*
X62778Y-65384D01*
X62778Y-65708D01*
X62760Y-65705D01*
X62739Y-65705D01*
X62530Y-65746D01*
X62353Y-65864D01*
X62235Y-66041D01*
X62200Y-66221D01*
X62200Y-65730D01*
X62200Y-65300D01*
X62200Y-65200D01*
X62200Y-64769D01*
X62115Y-64721D01*
X61923Y-64813D01*
X61781Y-64971D01*
X61721Y-65115D01*
X61770Y-65200D01*
X62200Y-65200D01*
X62200Y-65300D01*
X61770Y-65300D01*
X61721Y-65384D01*
X61781Y-65528D01*
X61923Y-65686D01*
X62115Y-65778D01*
X62200Y-65730D01*
X62200Y-66221D01*
X62194Y-66250D01*
X62235Y-66458D01*
X62353Y-66635D01*
X62530Y-66753D01*
X62739Y-66795D01*
X62760Y-66795D01*
X62969Y-66753D01*
X63146Y-66635D01*
X63264Y-66458D01*
X63305Y-66250D01*
X63305Y-67699D01*
X62930Y-68074D01*
X62915Y-68074D01*
X62759Y-68139D01*
X62639Y-68258D01*
X62575Y-68415D01*
X62574Y-68584D01*
X62639Y-68740D01*
X62758Y-68860D01*
X62915Y-68924D01*
X63084Y-68925D01*
X63240Y-68860D01*
X63360Y-68741D01*
X63424Y-68584D01*
X63424Y-68570D01*
X64569Y-67425D01*
X64584Y-67425D01*
X64740Y-67360D01*
X64860Y-67241D01*
X64924Y-67084D01*
X64925Y-66915D01*
X64925Y-69479D01*
X64750Y-69444D01*
X64541Y-69485D01*
X64364Y-69603D01*
X64246Y-69780D01*
X64205Y-69989D01*
X64205Y-70010D01*
X64246Y-70219D01*
X64364Y-70396D01*
X64541Y-70514D01*
X64750Y-70555D01*
X64958Y-70514D01*
X65135Y-70396D01*
X65253Y-70219D01*
X65295Y-70010D01*
X65295Y-73989D01*
X65253Y-73780D01*
X65135Y-73603D01*
X64958Y-73485D01*
X64750Y-73444D01*
X64541Y-73485D01*
X64364Y-73603D01*
X64246Y-73780D01*
X64205Y-73989D01*
X64205Y-74010D01*
X64246Y-74219D01*
X64364Y-74396D01*
X64541Y-74514D01*
X64750Y-74555D01*
X64958Y-74514D01*
X65135Y-74396D01*
X65253Y-74219D01*
X65295Y-74010D01*
X65295Y-76450D01*
X63595Y-76450D01*
X63595Y-75795D01*
X63595Y-75105D01*
X63557Y-75013D01*
X63486Y-74943D01*
X63394Y-74905D01*
X63295Y-74904D01*
X62605Y-74904D01*
X62513Y-74942D01*
X62443Y-75013D01*
X62420Y-75067D01*
X62227Y-74938D01*
X62000Y-74893D01*
X61772Y-74938D01*
X61579Y-75067D01*
X61500Y-75186D01*
X61425Y-75074D01*
X61425Y-72415D01*
X61360Y-72259D01*
X61241Y-72139D01*
X61084Y-72075D01*
X60915Y-72074D01*
X60759Y-72139D01*
X60749Y-72150D01*
X60251Y-72150D01*
X60241Y-72139D01*
X60175Y-72112D01*
X60175Y-68165D01*
X60110Y-68009D01*
X60100Y-67999D01*
X60100Y-66501D01*
X60110Y-66491D01*
X60174Y-66334D01*
X60175Y-66165D01*
X60110Y-66009D01*
X59991Y-65889D01*
X59834Y-65825D01*
X59795Y-65825D01*
X59795Y-65495D01*
X59795Y-64905D01*
X59757Y-64813D01*
X59686Y-64743D01*
X59594Y-64705D01*
X59495Y-64704D01*
X58905Y-64704D01*
X58813Y-64742D01*
X58743Y-64813D01*
X58705Y-64905D01*
X58704Y-65004D01*
X58704Y-65594D01*
X58742Y-65686D01*
X58761Y-65705D01*
X58760Y-65705D01*
X58739Y-65705D01*
X58530Y-65746D01*
X58353Y-65864D01*
X58235Y-66041D01*
X58194Y-66250D01*
X58235Y-66458D01*
X58353Y-66635D01*
X58530Y-66753D01*
X58739Y-66795D01*
X58760Y-66795D01*
X58969Y-66753D01*
X59146Y-66635D01*
X59264Y-66458D01*
X59305Y-66250D01*
X59264Y-66041D01*
X59146Y-65864D01*
X59041Y-65795D01*
X59594Y-65795D01*
X59686Y-65757D01*
X59756Y-65686D01*
X59794Y-65594D01*
X59795Y-65495D01*
X59795Y-65825D01*
X59665Y-65824D01*
X59509Y-65889D01*
X59389Y-66008D01*
X59325Y-66165D01*
X59324Y-66334D01*
X59389Y-66490D01*
X59400Y-66500D01*
X59400Y-67998D01*
X59389Y-68008D01*
X59325Y-68165D01*
X59324Y-68334D01*
X59389Y-68490D01*
X59508Y-68610D01*
X59665Y-68674D01*
X59834Y-68675D01*
X59990Y-68610D01*
X60110Y-68491D01*
X60174Y-68334D01*
X60175Y-68165D01*
X60175Y-72112D01*
X60084Y-72075D01*
X60020Y-72075D01*
X60020Y-70995D01*
X60020Y-70504D01*
X60019Y-70405D01*
X59981Y-70313D01*
X59911Y-70242D01*
X59819Y-70204D01*
X59562Y-70205D01*
X59500Y-70267D01*
X59500Y-70700D01*
X59957Y-70700D01*
X60020Y-70637D01*
X60020Y-70504D01*
X60020Y-70995D01*
X60020Y-70862D01*
X59957Y-70800D01*
X59500Y-70800D01*
X59500Y-71232D01*
X59562Y-71295D01*
X59819Y-71295D01*
X59911Y-71257D01*
X59981Y-71186D01*
X60019Y-71094D01*
X60020Y-70995D01*
X60020Y-72075D01*
X59915Y-72074D01*
X59759Y-72139D01*
X59639Y-72258D01*
X59575Y-72415D01*
X59574Y-72584D01*
X59639Y-72740D01*
X59758Y-72860D01*
X59915Y-72924D01*
X60084Y-72925D01*
X60240Y-72860D01*
X60250Y-72850D01*
X60748Y-72850D01*
X60758Y-72860D01*
X60915Y-72924D01*
X61084Y-72925D01*
X61240Y-72860D01*
X61360Y-72741D01*
X61424Y-72584D01*
X61425Y-72415D01*
X61425Y-75074D01*
X61420Y-75067D01*
X61227Y-74938D01*
X61000Y-74893D01*
X60772Y-74938D01*
X60579Y-75067D01*
X60450Y-75260D01*
X60405Y-75488D01*
X60405Y-75511D01*
X60450Y-75739D01*
X60579Y-75932D01*
X60772Y-76061D01*
X61000Y-76106D01*
X61227Y-76061D01*
X61420Y-75932D01*
X61500Y-75813D01*
X61579Y-75932D01*
X61772Y-76061D01*
X62000Y-76106D01*
X62227Y-76061D01*
X62420Y-75932D01*
X62442Y-75986D01*
X62513Y-76056D01*
X62605Y-76094D01*
X62704Y-76095D01*
X63394Y-76095D01*
X63486Y-76057D01*
X63556Y-75986D01*
X63594Y-75894D01*
X63595Y-75795D01*
X63595Y-76450D01*
X59400Y-76450D01*
X59400Y-71232D01*
X59400Y-70800D01*
X59400Y-70700D01*
X59400Y-70267D01*
X59337Y-70205D01*
X59080Y-70204D01*
X58988Y-70242D01*
X58918Y-70313D01*
X58880Y-70405D01*
X58879Y-70504D01*
X58880Y-70637D01*
X58942Y-70700D01*
X59400Y-70700D01*
X59400Y-70800D01*
X58942Y-70800D01*
X58880Y-70862D01*
X58879Y-70995D01*
X58880Y-71094D01*
X58918Y-71186D01*
X58988Y-71257D01*
X59080Y-71295D01*
X59337Y-71295D01*
X59400Y-71232D01*
X59400Y-76450D01*
X58870Y-76450D01*
X58870Y-70995D01*
X58870Y-70405D01*
X58832Y-70313D01*
X58761Y-70243D01*
X58669Y-70205D01*
X58570Y-70204D01*
X57930Y-70204D01*
X57838Y-70242D01*
X57770Y-70311D01*
X57770Y-65745D01*
X57770Y-65254D01*
X57769Y-65155D01*
X57731Y-65063D01*
X57661Y-64992D01*
X57569Y-64954D01*
X57312Y-64955D01*
X57250Y-65017D01*
X57250Y-65450D01*
X57707Y-65450D01*
X57770Y-65387D01*
X57770Y-65254D01*
X57770Y-65745D01*
X57770Y-65612D01*
X57707Y-65550D01*
X57250Y-65550D01*
X57250Y-65982D01*
X57312Y-66045D01*
X57569Y-66045D01*
X57661Y-66007D01*
X57731Y-65936D01*
X57769Y-65844D01*
X57770Y-65745D01*
X57770Y-70311D01*
X57768Y-70313D01*
X57730Y-70405D01*
X57729Y-70504D01*
X57729Y-71094D01*
X57767Y-71186D01*
X57838Y-71256D01*
X57930Y-71294D01*
X58029Y-71295D01*
X58669Y-71295D01*
X58761Y-71257D01*
X58831Y-71186D01*
X58869Y-71094D01*
X58870Y-70995D01*
X58870Y-76450D01*
X57680Y-76450D01*
X57680Y-66625D01*
X57639Y-66416D01*
X57521Y-66239D01*
X57344Y-66121D01*
X57150Y-66082D01*
X57150Y-65982D01*
X57150Y-65550D01*
X57150Y-65450D01*
X57150Y-65017D01*
X57087Y-64955D01*
X56830Y-64954D01*
X56738Y-64992D01*
X56668Y-65063D01*
X56630Y-65155D01*
X56629Y-65254D01*
X56630Y-65387D01*
X56692Y-65450D01*
X57150Y-65450D01*
X57150Y-65550D01*
X56692Y-65550D01*
X56630Y-65612D01*
X56629Y-65745D01*
X56630Y-65844D01*
X56668Y-65936D01*
X56738Y-66007D01*
X56830Y-66045D01*
X57087Y-66045D01*
X57150Y-65982D01*
X57150Y-66082D01*
X57135Y-66080D01*
X57114Y-66080D01*
X56905Y-66121D01*
X56728Y-66239D01*
X56625Y-66395D01*
X56620Y-66387D01*
X56620Y-65745D01*
X56620Y-65155D01*
X56582Y-65063D01*
X56511Y-64993D01*
X56419Y-64955D01*
X56320Y-64954D01*
X55680Y-64954D01*
X55588Y-64992D01*
X55518Y-65063D01*
X55480Y-65155D01*
X55479Y-65254D01*
X55479Y-65844D01*
X55517Y-65936D01*
X55588Y-66006D01*
X55680Y-66044D01*
X55779Y-66045D01*
X56419Y-66045D01*
X56511Y-66007D01*
X56581Y-65936D01*
X56619Y-65844D01*
X56620Y-65745D01*
X56620Y-66387D01*
X56521Y-66239D01*
X56344Y-66121D01*
X56135Y-66080D01*
X56114Y-66080D01*
X55905Y-66121D01*
X55728Y-66239D01*
X55625Y-66395D01*
X55521Y-66239D01*
X55344Y-66121D01*
X55135Y-66080D01*
X55114Y-66080D01*
X55020Y-66098D01*
X55020Y-65745D01*
X55020Y-65155D01*
X54982Y-65063D01*
X54911Y-64993D01*
X54819Y-64955D01*
X54720Y-64954D01*
X54080Y-64954D01*
X53988Y-64992D01*
X53918Y-65063D01*
X53880Y-65155D01*
X53879Y-65254D01*
X53879Y-65844D01*
X53917Y-65936D01*
X53988Y-66006D01*
X54080Y-66044D01*
X54179Y-66045D01*
X54819Y-66045D01*
X54911Y-66007D01*
X54981Y-65936D01*
X55019Y-65844D01*
X55020Y-65745D01*
X55020Y-66098D01*
X54905Y-66121D01*
X54728Y-66239D01*
X54625Y-66395D01*
X54521Y-66239D01*
X54344Y-66121D01*
X54135Y-66080D01*
X54114Y-66080D01*
X53905Y-66121D01*
X53870Y-66145D01*
X53870Y-65745D01*
X53870Y-65254D01*
X53869Y-65155D01*
X53831Y-65063D01*
X53761Y-64992D01*
X53669Y-64954D01*
X53412Y-64955D01*
X53350Y-65017D01*
X53350Y-65450D01*
X53807Y-65450D01*
X53870Y-65387D01*
X53870Y-65254D01*
X53870Y-65745D01*
X53870Y-65612D01*
X53807Y-65550D01*
X53350Y-65550D01*
X53350Y-65982D01*
X53412Y-66045D01*
X53669Y-66045D01*
X53761Y-66007D01*
X53831Y-65936D01*
X53869Y-65844D01*
X53870Y-65745D01*
X53870Y-66145D01*
X53728Y-66239D01*
X53610Y-66416D01*
X53569Y-66625D01*
X53610Y-66833D01*
X53728Y-67010D01*
X53905Y-67128D01*
X54114Y-67170D01*
X54135Y-67170D01*
X54252Y-67146D01*
X54139Y-67258D01*
X54075Y-67415D01*
X54074Y-67584D01*
X54139Y-67740D01*
X54258Y-67860D01*
X54415Y-67924D01*
X54584Y-67925D01*
X54740Y-67860D01*
X54801Y-67800D01*
X55698Y-67800D01*
X55758Y-67860D01*
X55915Y-67924D01*
X56084Y-67925D01*
X56240Y-67860D01*
X56360Y-67741D01*
X56424Y-67584D01*
X56425Y-67415D01*
X56360Y-67259D01*
X56248Y-67147D01*
X56344Y-67128D01*
X56521Y-67010D01*
X56625Y-66854D01*
X56728Y-67010D01*
X56905Y-67128D01*
X57114Y-67170D01*
X57135Y-67170D01*
X57344Y-67128D01*
X57521Y-67010D01*
X57639Y-66833D01*
X57680Y-66625D01*
X57680Y-76450D01*
X57670Y-76450D01*
X57670Y-74635D01*
X57670Y-74614D01*
X57653Y-74529D01*
X57653Y-70759D01*
X57653Y-70490D01*
X57561Y-70298D01*
X57403Y-70156D01*
X57322Y-70123D01*
X57451Y-70061D01*
X57593Y-69903D01*
X57653Y-69759D01*
X57653Y-69490D01*
X57593Y-69346D01*
X57451Y-69188D01*
X57259Y-69096D01*
X57175Y-69144D01*
X57175Y-69575D01*
X57604Y-69575D01*
X57653Y-69490D01*
X57653Y-69759D01*
X57604Y-69675D01*
X57175Y-69675D01*
X57175Y-70105D01*
X57209Y-70125D01*
X57175Y-70145D01*
X57175Y-70575D01*
X57605Y-70575D01*
X57653Y-70490D01*
X57653Y-70759D01*
X57605Y-70675D01*
X57175Y-70675D01*
X57175Y-71104D01*
X57259Y-71153D01*
X57403Y-71093D01*
X57561Y-70951D01*
X57653Y-70759D01*
X57653Y-74529D01*
X57628Y-74405D01*
X57510Y-74228D01*
X57333Y-74110D01*
X57125Y-74069D01*
X57075Y-74079D01*
X57075Y-71104D01*
X57075Y-70675D01*
X57067Y-70675D01*
X57067Y-70575D01*
X57075Y-70575D01*
X57075Y-70145D01*
X57040Y-70125D01*
X57075Y-70105D01*
X57075Y-69675D01*
X57067Y-69675D01*
X57067Y-69575D01*
X57075Y-69575D01*
X57075Y-69144D01*
X56990Y-69096D01*
X56798Y-69188D01*
X56656Y-69346D01*
X56632Y-69405D01*
X56521Y-69239D01*
X56344Y-69121D01*
X56135Y-69080D01*
X56114Y-69080D01*
X55905Y-69121D01*
X55728Y-69239D01*
X55625Y-69395D01*
X55521Y-69239D01*
X55344Y-69121D01*
X55135Y-69080D01*
X55114Y-69080D01*
X54905Y-69121D01*
X54728Y-69239D01*
X54670Y-69327D01*
X54670Y-69280D01*
X54632Y-69188D01*
X54561Y-69118D01*
X54469Y-69080D01*
X54370Y-69079D01*
X53780Y-69079D01*
X53688Y-69117D01*
X53618Y-69188D01*
X53580Y-69280D01*
X53579Y-69379D01*
X53579Y-69969D01*
X53617Y-70061D01*
X53688Y-70131D01*
X53780Y-70169D01*
X53827Y-70169D01*
X53739Y-70228D01*
X53625Y-70400D01*
X53520Y-70243D01*
X53520Y-68995D01*
X53520Y-68405D01*
X53482Y-68313D01*
X53411Y-68243D01*
X53319Y-68205D01*
X53250Y-68204D01*
X53250Y-65982D01*
X53250Y-65550D01*
X53250Y-65450D01*
X53250Y-65017D01*
X53187Y-64955D01*
X52930Y-64954D01*
X52838Y-64992D01*
X52768Y-65063D01*
X52730Y-65155D01*
X52729Y-65254D01*
X52730Y-65387D01*
X52792Y-65450D01*
X53250Y-65450D01*
X53250Y-65550D01*
X52792Y-65550D01*
X52730Y-65612D01*
X52729Y-65745D01*
X52730Y-65844D01*
X52768Y-65936D01*
X52838Y-66007D01*
X52930Y-66045D01*
X53187Y-66045D01*
X53250Y-65982D01*
X53250Y-68204D01*
X53220Y-68204D01*
X52580Y-68204D01*
X52488Y-68242D01*
X52418Y-68313D01*
X52380Y-68405D01*
X52379Y-68504D01*
X52379Y-69094D01*
X52417Y-69186D01*
X52488Y-69256D01*
X52580Y-69294D01*
X52679Y-69295D01*
X53319Y-69295D01*
X53411Y-69257D01*
X53481Y-69186D01*
X53519Y-69094D01*
X53520Y-68995D01*
X53520Y-70243D01*
X53510Y-70228D01*
X53333Y-70110D01*
X53125Y-70069D01*
X52916Y-70110D01*
X52739Y-70228D01*
X52621Y-70405D01*
X52580Y-70614D01*
X52580Y-70635D01*
X52621Y-70844D01*
X52739Y-71021D01*
X52916Y-71139D01*
X53125Y-71180D01*
X53333Y-71139D01*
X53510Y-71021D01*
X53625Y-70849D01*
X53739Y-71021D01*
X53916Y-71139D01*
X54125Y-71180D01*
X54333Y-71139D01*
X54510Y-71021D01*
X54625Y-70849D01*
X54739Y-71021D01*
X54916Y-71139D01*
X55125Y-71180D01*
X55333Y-71139D01*
X55510Y-71021D01*
X55625Y-70849D01*
X55739Y-71021D01*
X55916Y-71139D01*
X56125Y-71180D01*
X56333Y-71139D01*
X56510Y-71021D01*
X56628Y-70844D01*
X56631Y-70831D01*
X56688Y-70951D01*
X56846Y-71093D01*
X56990Y-71153D01*
X57075Y-71104D01*
X57075Y-74079D01*
X56925Y-74109D01*
X56925Y-72415D01*
X56860Y-72259D01*
X56741Y-72139D01*
X56584Y-72075D01*
X56415Y-72074D01*
X56259Y-72139D01*
X56249Y-72150D01*
X56001Y-72150D01*
X55991Y-72139D01*
X55834Y-72075D01*
X55665Y-72074D01*
X55509Y-72139D01*
X55389Y-72258D01*
X55325Y-72415D01*
X55324Y-72584D01*
X55389Y-72740D01*
X55508Y-72860D01*
X55665Y-72924D01*
X55834Y-72925D01*
X55990Y-72860D01*
X56000Y-72850D01*
X56248Y-72850D01*
X56258Y-72860D01*
X56415Y-72924D01*
X56584Y-72925D01*
X56740Y-72860D01*
X56860Y-72741D01*
X56924Y-72584D01*
X56925Y-72415D01*
X56925Y-74109D01*
X56916Y-74110D01*
X56739Y-74228D01*
X56625Y-74400D01*
X56510Y-74228D01*
X56333Y-74110D01*
X56125Y-74069D01*
X55916Y-74110D01*
X55739Y-74228D01*
X55621Y-74405D01*
X55618Y-74418D01*
X55561Y-74298D01*
X55403Y-74156D01*
X55259Y-74096D01*
X55175Y-74145D01*
X55175Y-74575D01*
X55182Y-74575D01*
X55182Y-74675D01*
X55175Y-74675D01*
X55175Y-75104D01*
X55259Y-75153D01*
X55403Y-75093D01*
X55561Y-74951D01*
X55618Y-74831D01*
X55621Y-74844D01*
X55739Y-75021D01*
X55916Y-75139D01*
X56125Y-75180D01*
X56333Y-75139D01*
X56510Y-75021D01*
X56625Y-74849D01*
X56739Y-75021D01*
X56916Y-75139D01*
X57125Y-75180D01*
X57333Y-75139D01*
X57510Y-75021D01*
X57628Y-74844D01*
X57670Y-74635D01*
X57670Y-76450D01*
X55075Y-76450D01*
X55075Y-75104D01*
X55075Y-74675D01*
X55067Y-74675D01*
X55067Y-74575D01*
X55075Y-74575D01*
X55075Y-74145D01*
X54990Y-74096D01*
X54925Y-74123D01*
X54925Y-72415D01*
X54860Y-72259D01*
X54741Y-72139D01*
X54584Y-72075D01*
X54415Y-72074D01*
X54259Y-72139D01*
X54249Y-72150D01*
X54001Y-72150D01*
X53991Y-72139D01*
X53834Y-72075D01*
X53665Y-72074D01*
X53509Y-72139D01*
X53389Y-72258D01*
X53325Y-72415D01*
X53324Y-72584D01*
X53389Y-72740D01*
X53508Y-72860D01*
X53665Y-72924D01*
X53834Y-72925D01*
X53990Y-72860D01*
X54000Y-72850D01*
X54248Y-72850D01*
X54258Y-72860D01*
X54415Y-72924D01*
X54584Y-72925D01*
X54740Y-72860D01*
X54860Y-72741D01*
X54924Y-72584D01*
X54925Y-72415D01*
X54925Y-74123D01*
X54846Y-74156D01*
X54688Y-74298D01*
X54631Y-74418D01*
X54628Y-74405D01*
X54510Y-74228D01*
X54333Y-74110D01*
X54125Y-74069D01*
X53916Y-74110D01*
X53739Y-74228D01*
X53625Y-74400D01*
X53510Y-74228D01*
X53333Y-74110D01*
X53125Y-74069D01*
X52916Y-74110D01*
X52739Y-74228D01*
X52621Y-74405D01*
X52580Y-74614D01*
X52580Y-74635D01*
X52621Y-74844D01*
X52739Y-75021D01*
X52916Y-75139D01*
X53125Y-75180D01*
X53333Y-75139D01*
X53510Y-75021D01*
X53625Y-74849D01*
X53739Y-75021D01*
X53916Y-75139D01*
X54125Y-75180D01*
X54333Y-75139D01*
X54510Y-75021D01*
X54628Y-74844D01*
X54631Y-74831D01*
X54688Y-74951D01*
X54846Y-75093D01*
X54990Y-75153D01*
X55075Y-75104D01*
X55075Y-76450D01*
X52370Y-76450D01*
X52370Y-68995D01*
X52370Y-68504D01*
X52369Y-68405D01*
X52331Y-68313D01*
X52261Y-68242D01*
X52169Y-68204D01*
X51912Y-68205D01*
X51850Y-68267D01*
X51850Y-68700D01*
X52307Y-68700D01*
X52370Y-68637D01*
X52370Y-68504D01*
X52370Y-68995D01*
X52370Y-68862D01*
X52307Y-68800D01*
X51850Y-68800D01*
X51850Y-69232D01*
X51912Y-69295D01*
X52169Y-69295D01*
X52261Y-69257D01*
X52331Y-69186D01*
X52369Y-69094D01*
X52370Y-68995D01*
X52370Y-76450D01*
X51750Y-76450D01*
X51750Y-69232D01*
X51750Y-68800D01*
X51750Y-68700D01*
X51750Y-68267D01*
X51687Y-68205D01*
X51430Y-68204D01*
X51338Y-68242D01*
X51268Y-68313D01*
X51230Y-68405D01*
X51229Y-68504D01*
X51230Y-68637D01*
X51292Y-68700D01*
X51750Y-68700D01*
X51750Y-68800D01*
X51292Y-68800D01*
X51230Y-68862D01*
X51229Y-68995D01*
X51230Y-69094D01*
X51268Y-69186D01*
X51338Y-69257D01*
X51430Y-69295D01*
X51687Y-69295D01*
X51750Y-69232D01*
X51750Y-76450D01*
X51095Y-76450D01*
X51095Y-74015D01*
X51095Y-73639D01*
X51095Y-67360D01*
X51095Y-66984D01*
X51049Y-66757D01*
X50920Y-66564D01*
X50727Y-66435D01*
X50500Y-66389D01*
X50272Y-66435D01*
X50079Y-66564D01*
X49950Y-66757D01*
X49905Y-66984D01*
X49905Y-67360D01*
X49950Y-67587D01*
X50079Y-67780D01*
X50272Y-67909D01*
X50500Y-67955D01*
X50727Y-67909D01*
X50920Y-67780D01*
X51049Y-67587D01*
X51095Y-67360D01*
X51095Y-73639D01*
X51049Y-73412D01*
X50920Y-73219D01*
X50727Y-73090D01*
X50500Y-73044D01*
X50272Y-73090D01*
X50079Y-73219D01*
X49950Y-73412D01*
X49905Y-73639D01*
X49905Y-74015D01*
X49950Y-74242D01*
X50079Y-74435D01*
X50272Y-74564D01*
X50500Y-74610D01*
X50727Y-74564D01*
X50920Y-74435D01*
X51049Y-74242D01*
X51095Y-74015D01*
X51095Y-76450D01*
X49095Y-76450D01*
X49095Y-74015D01*
X49095Y-73639D01*
X49095Y-67360D01*
X49095Y-66984D01*
X49049Y-66757D01*
X48920Y-66564D01*
X48727Y-66435D01*
X48500Y-66389D01*
X48272Y-66435D01*
X48079Y-66564D01*
X47950Y-66757D01*
X47905Y-66984D01*
X47905Y-67360D01*
X47950Y-67587D01*
X48079Y-67780D01*
X48272Y-67909D01*
X48500Y-67955D01*
X48727Y-67909D01*
X48920Y-67780D01*
X49049Y-67587D01*
X49095Y-67360D01*
X49095Y-73639D01*
X49049Y-73412D01*
X48920Y-73219D01*
X48727Y-73090D01*
X48500Y-73044D01*
X48272Y-73090D01*
X48079Y-73219D01*
X47950Y-73412D01*
X47905Y-73639D01*
X47905Y-74015D01*
X47950Y-74242D01*
X48079Y-74435D01*
X48272Y-74564D01*
X48500Y-74610D01*
X48727Y-74564D01*
X48920Y-74435D01*
X49049Y-74242D01*
X49095Y-74015D01*
X49095Y-76450D01*
X47095Y-76450D01*
X47095Y-74015D01*
X47095Y-73639D01*
X47095Y-67395D01*
X47095Y-67222D01*
X47095Y-67122D01*
X47095Y-66950D01*
X47077Y-66890D01*
X47077Y-65642D01*
X47030Y-65550D01*
X46550Y-65550D01*
X46550Y-66030D01*
X46642Y-66077D01*
X46808Y-66009D01*
X46979Y-65852D01*
X47077Y-65642D01*
X47077Y-66890D01*
X47030Y-66726D01*
X46885Y-66543D01*
X46681Y-66431D01*
X46642Y-66422D01*
X46550Y-66469D01*
X46550Y-67122D01*
X47095Y-67122D01*
X47095Y-67222D01*
X46550Y-67222D01*
X46550Y-67875D01*
X46642Y-67922D01*
X46681Y-67913D01*
X46885Y-67801D01*
X47030Y-67618D01*
X47095Y-67395D01*
X47095Y-73639D01*
X47049Y-73412D01*
X46920Y-73219D01*
X46727Y-73090D01*
X46500Y-73044D01*
X46450Y-73054D01*
X46450Y-67875D01*
X46450Y-67222D01*
X46450Y-67122D01*
X46450Y-66469D01*
X46450Y-66030D01*
X46450Y-65550D01*
X45969Y-65550D01*
X45922Y-65642D01*
X46020Y-65852D01*
X46191Y-66009D01*
X46357Y-66077D01*
X46450Y-66030D01*
X46450Y-66469D01*
X46357Y-66422D01*
X46318Y-66431D01*
X46114Y-66543D01*
X45969Y-66726D01*
X45905Y-66950D01*
X45905Y-67122D01*
X46450Y-67122D01*
X46450Y-67222D01*
X45905Y-67222D01*
X45905Y-67395D01*
X45969Y-67618D01*
X46114Y-67801D01*
X46318Y-67913D01*
X46357Y-67922D01*
X46450Y-67875D01*
X46450Y-73054D01*
X46272Y-73090D01*
X46079Y-73219D01*
X45950Y-73412D01*
X45905Y-73639D01*
X45905Y-74015D01*
X45950Y-74242D01*
X46079Y-74435D01*
X46272Y-74564D01*
X46500Y-74610D01*
X46727Y-74564D01*
X46920Y-74435D01*
X47049Y-74242D01*
X47095Y-74015D01*
X47095Y-76450D01*
X46020Y-76450D01*
X45800Y-76229D01*
X45800Y-64270D01*
X45904Y-64165D01*
X45904Y-64204D01*
X45904Y-64894D01*
X45942Y-64986D01*
X46013Y-65056D01*
X46086Y-65087D01*
X46020Y-65147D01*
X45922Y-65357D01*
X45969Y-65450D01*
X46450Y-65450D01*
X46450Y-65442D01*
X46550Y-65442D01*
X46550Y-65450D01*
X47030Y-65450D01*
X47077Y-65357D01*
X46979Y-65147D01*
X46913Y-65087D01*
X46986Y-65057D01*
X47056Y-64986D01*
X47094Y-64894D01*
X47095Y-64795D01*
X47095Y-64105D01*
X47072Y-64050D01*
X47700Y-64050D01*
X47603Y-64114D01*
X47485Y-64291D01*
X47444Y-64500D01*
X47485Y-64708D01*
X47603Y-64885D01*
X47780Y-65003D01*
X47989Y-65045D01*
X48010Y-65045D01*
X48219Y-65003D01*
X48396Y-64885D01*
X48514Y-64708D01*
X48555Y-64500D01*
X48514Y-64291D01*
X48396Y-64114D01*
X48299Y-64050D01*
X51700Y-64050D01*
X51603Y-64114D01*
X51485Y-64291D01*
X51444Y-64500D01*
X51485Y-64708D01*
X51603Y-64885D01*
X51780Y-65003D01*
X51989Y-65045D01*
X52010Y-65045D01*
X52219Y-65003D01*
X52396Y-64885D01*
X52514Y-64708D01*
X52555Y-64500D01*
X52514Y-64291D01*
X52396Y-64114D01*
X52299Y-64050D01*
X65031Y-64050D01*
X65018Y-64063D01*
X64980Y-64155D01*
X64979Y-64254D01*
X64980Y-64387D01*
X65042Y-64450D01*
X65500Y-64450D01*
X65500Y-64442D01*
X65600Y-64442D01*
X65600Y-64450D01*
X66057Y-64450D01*
X66120Y-64387D01*
X66120Y-64254D01*
X66119Y-64155D01*
X66081Y-64063D01*
X66068Y-64050D01*
X66181Y-64050D01*
X66168Y-64063D01*
X66130Y-64155D01*
X66129Y-64254D01*
X66129Y-64844D01*
X66167Y-64936D01*
X66238Y-65006D01*
X66330Y-65044D01*
X66429Y-65045D01*
X66452Y-65045D01*
X66364Y-65103D01*
X66246Y-65280D01*
X66205Y-65489D01*
X66205Y-65510D01*
X66246Y-65719D01*
X66364Y-65896D01*
X66541Y-66014D01*
X66750Y-66055D01*
X66958Y-66014D01*
X67135Y-65896D01*
X67253Y-65719D01*
X67295Y-65510D01*
X67295Y-65489D01*
X67253Y-65280D01*
X67135Y-65103D01*
X67047Y-65045D01*
X67069Y-65045D01*
X67161Y-65007D01*
X67231Y-64936D01*
X67269Y-64844D01*
X67270Y-64745D01*
X67270Y-64155D01*
X67232Y-64063D01*
X67218Y-64050D01*
X67695Y-64050D01*
X67614Y-64103D01*
X67496Y-64280D01*
X67455Y-64489D01*
X67455Y-64510D01*
X67496Y-64719D01*
X67614Y-64896D01*
X67770Y-65000D01*
X67614Y-65103D01*
X67496Y-65280D01*
X67455Y-65489D01*
X67455Y-65510D01*
X67496Y-65719D01*
X67614Y-65896D01*
X67770Y-66000D01*
X67614Y-66103D01*
X67496Y-66280D01*
X67455Y-66489D01*
X67455Y-66510D01*
X67496Y-66719D01*
X67614Y-66896D01*
X67770Y-67000D01*
X67614Y-67103D01*
X67496Y-67280D01*
X67455Y-67489D01*
X67455Y-67510D01*
X67496Y-67719D01*
X67614Y-67896D01*
X67740Y-67979D01*
X67655Y-67979D01*
X67563Y-68017D01*
X67493Y-68088D01*
X67455Y-68180D01*
X67454Y-68279D01*
X67454Y-68919D01*
X67492Y-69011D01*
X67563Y-69081D01*
X67655Y-69119D01*
X67754Y-69120D01*
X68344Y-69120D01*
X68436Y-69082D01*
X68506Y-69011D01*
X68544Y-68919D01*
X68545Y-68820D01*
X68545Y-68180D01*
X68507Y-68088D01*
X68436Y-68018D01*
X68344Y-67980D01*
X68259Y-67979D01*
X68385Y-67896D01*
X68503Y-67719D01*
X68545Y-67510D01*
X68545Y-67489D01*
X68503Y-67280D01*
X68385Y-67103D01*
X68229Y-67000D01*
X68385Y-66896D01*
X68503Y-66719D01*
X68545Y-66510D01*
X68545Y-66489D01*
X68503Y-66280D01*
X68385Y-66103D01*
X68229Y-66000D01*
X68385Y-65896D01*
X68503Y-65719D01*
X68545Y-65510D01*
X68545Y-65489D01*
X68503Y-65280D01*
X68385Y-65103D01*
X68229Y-65000D01*
X68385Y-64896D01*
X68503Y-64719D01*
X68545Y-64510D01*
X68545Y-64489D01*
X68503Y-64280D01*
X68385Y-64103D01*
X68304Y-64050D01*
X70700Y-64050D01*
X70563Y-64173D01*
X70471Y-64365D01*
X70519Y-64450D01*
X70950Y-64450D01*
X70950Y-64442D01*
X71050Y-64442D01*
X71050Y-64450D01*
X71480Y-64450D01*
X71528Y-64365D01*
X71436Y-64173D01*
X71299Y-64050D01*
X73927Y-64050D01*
X73905Y-64105D01*
X73904Y-64204D01*
X73904Y-64894D01*
X73942Y-64986D01*
X74013Y-65056D01*
X74105Y-65094D01*
X74204Y-65095D01*
X74894Y-65095D01*
X74986Y-65057D01*
X75056Y-64986D01*
X75082Y-64924D01*
X75162Y-65004D01*
X75381Y-65094D01*
X75617Y-65095D01*
X75836Y-65004D01*
X76000Y-64841D01*
X76162Y-65004D01*
X76381Y-65094D01*
X76617Y-65095D01*
X76836Y-65004D01*
X77004Y-64837D01*
X77009Y-64824D01*
X77081Y-64847D01*
X77429Y-64500D01*
X77081Y-64152D01*
X77009Y-64175D01*
X77004Y-64163D01*
X76891Y-64050D01*
X77162Y-64050D01*
X77152Y-64081D01*
X77500Y-64429D01*
X77847Y-64081D01*
X77837Y-64050D01*
X77979Y-64050D01*
X78200Y-64270D01*
X78200Y-76229D01*
X78200Y-76229D01*
G37*
G54D21*
X78200Y-76229D02*
X78099Y-76329D01*
X78099Y-64592D01*
X78089Y-64356D01*
X78018Y-64185D01*
X77918Y-64152D01*
X77570Y-64500D01*
X77918Y-64847D01*
X78018Y-64814D01*
X78099Y-64592D01*
X78099Y-76329D01*
X78095Y-76334D01*
X78095Y-74882D01*
X78095Y-74881D01*
X78095Y-73765D01*
X78095Y-73389D01*
X78095Y-67110D01*
X78095Y-66734D01*
X78049Y-66507D01*
X77920Y-66314D01*
X77847Y-66265D01*
X77847Y-64918D01*
X77500Y-64570D01*
X77152Y-64918D01*
X77185Y-65018D01*
X77407Y-65099D01*
X77643Y-65089D01*
X77814Y-65018D01*
X77847Y-64918D01*
X77847Y-66265D01*
X77727Y-66185D01*
X77500Y-66139D01*
X77272Y-66185D01*
X77079Y-66314D01*
X76950Y-66507D01*
X76905Y-66734D01*
X76905Y-67110D01*
X76950Y-67337D01*
X77079Y-67530D01*
X77272Y-67659D01*
X77500Y-67705D01*
X77727Y-67659D01*
X77920Y-67530D01*
X78049Y-67337D01*
X78095Y-67110D01*
X78095Y-73389D01*
X78049Y-73162D01*
X77920Y-72969D01*
X77727Y-72840D01*
X77500Y-72794D01*
X77272Y-72840D01*
X77079Y-72969D01*
X76950Y-73162D01*
X76905Y-73389D01*
X76905Y-73765D01*
X76950Y-73992D01*
X77079Y-74185D01*
X77272Y-74314D01*
X77500Y-74360D01*
X77727Y-74314D01*
X77920Y-74185D01*
X78049Y-73992D01*
X78095Y-73765D01*
X78095Y-74881D01*
X78004Y-74663D01*
X77837Y-74495D01*
X77618Y-74405D01*
X77382Y-74404D01*
X77163Y-74495D01*
X76995Y-74662D01*
X76905Y-74881D01*
X76904Y-75117D01*
X76995Y-75336D01*
X77075Y-75417D01*
X77013Y-75443D01*
X76942Y-75513D01*
X76904Y-75605D01*
X76905Y-75887D01*
X76967Y-75950D01*
X77450Y-75950D01*
X77450Y-75942D01*
X77550Y-75942D01*
X77550Y-75950D01*
X78032Y-75950D01*
X78095Y-75887D01*
X78095Y-75605D01*
X78057Y-75513D01*
X77986Y-75443D01*
X77924Y-75417D01*
X78004Y-75337D01*
X78094Y-75118D01*
X78095Y-74882D01*
X78095Y-76334D01*
X78095Y-76334D01*
X78095Y-76112D01*
X78032Y-76050D01*
X77550Y-76050D01*
X77550Y-76057D01*
X77450Y-76057D01*
X77450Y-76050D01*
X76967Y-76050D01*
X76905Y-76112D01*
X76904Y-76394D01*
X76927Y-76450D01*
X76745Y-76450D01*
X76745Y-71295D01*
X76745Y-70605D01*
X76707Y-70513D01*
X76636Y-70443D01*
X76544Y-70405D01*
X76445Y-70404D01*
X75755Y-70404D01*
X75663Y-70442D01*
X75593Y-70513D01*
X75555Y-70605D01*
X75554Y-70704D01*
X75554Y-71394D01*
X75592Y-71486D01*
X75663Y-71556D01*
X75755Y-71594D01*
X75854Y-71595D01*
X76544Y-71595D01*
X76636Y-71557D01*
X76706Y-71486D01*
X76744Y-71394D01*
X76745Y-71295D01*
X76745Y-76450D01*
X76745Y-76450D01*
X76745Y-75011D01*
X76745Y-74988D01*
X76699Y-74760D01*
X76570Y-74567D01*
X76377Y-74438D01*
X76150Y-74393D01*
X75922Y-74438D01*
X75729Y-74567D01*
X75600Y-74760D01*
X75555Y-74988D01*
X75555Y-75011D01*
X75600Y-75239D01*
X75729Y-75432D01*
X75922Y-75561D01*
X76150Y-75606D01*
X76377Y-75561D01*
X76570Y-75432D01*
X76699Y-75239D01*
X76745Y-75011D01*
X76745Y-76450D01*
X75345Y-76450D01*
X75345Y-73765D01*
X75345Y-73389D01*
X75345Y-67110D01*
X75345Y-66734D01*
X75299Y-66507D01*
X75170Y-66314D01*
X74977Y-66185D01*
X74750Y-66139D01*
X74522Y-66185D01*
X74329Y-66314D01*
X74200Y-66507D01*
X74155Y-66734D01*
X74155Y-67110D01*
X74200Y-67337D01*
X74329Y-67530D01*
X74522Y-67659D01*
X74750Y-67705D01*
X74977Y-67659D01*
X75170Y-67530D01*
X75299Y-67337D01*
X75345Y-67110D01*
X75345Y-73389D01*
X75299Y-73162D01*
X75170Y-72969D01*
X74977Y-72840D01*
X74750Y-72794D01*
X74522Y-72840D01*
X74329Y-72969D01*
X74200Y-73162D01*
X74155Y-73389D01*
X74155Y-73765D01*
X74200Y-73992D01*
X74329Y-74185D01*
X74522Y-74314D01*
X74750Y-74360D01*
X74977Y-74314D01*
X75170Y-74185D01*
X75299Y-73992D01*
X75345Y-73765D01*
X75345Y-76450D01*
X73345Y-76450D01*
X73345Y-73765D01*
X73345Y-73389D01*
X73345Y-67110D01*
X73345Y-66734D01*
X73299Y-66507D01*
X73170Y-66314D01*
X72977Y-66185D01*
X72750Y-66139D01*
X72522Y-66185D01*
X72329Y-66314D01*
X72200Y-66507D01*
X72155Y-66734D01*
X72155Y-67110D01*
X72200Y-67337D01*
X72329Y-67530D01*
X72522Y-67659D01*
X72750Y-67705D01*
X72977Y-67659D01*
X73170Y-67530D01*
X73299Y-67337D01*
X73345Y-67110D01*
X73345Y-73389D01*
X73299Y-73162D01*
X73170Y-72969D01*
X72977Y-72840D01*
X72750Y-72794D01*
X72522Y-72840D01*
X72329Y-72969D01*
X72200Y-73162D01*
X72155Y-73389D01*
X72155Y-73765D01*
X72200Y-73992D01*
X72329Y-74185D01*
X72522Y-74314D01*
X72750Y-74360D01*
X72977Y-74314D01*
X73170Y-74185D01*
X73299Y-73992D01*
X73345Y-73765D01*
X73345Y-76450D01*
X71545Y-76450D01*
X71545Y-67745D01*
X71545Y-67155D01*
X71507Y-67063D01*
X71436Y-66993D01*
X71344Y-66955D01*
X71297Y-66955D01*
X71385Y-66896D01*
X71503Y-66719D01*
X71545Y-66510D01*
X71545Y-66489D01*
X71503Y-66280D01*
X71385Y-66103D01*
X71229Y-66000D01*
X71385Y-65896D01*
X71503Y-65719D01*
X71545Y-65510D01*
X71545Y-65489D01*
X71503Y-65280D01*
X71385Y-65103D01*
X71219Y-64992D01*
X71278Y-64968D01*
X71436Y-64826D01*
X71528Y-64634D01*
X71480Y-64550D01*
X71050Y-64550D01*
X71050Y-64557D01*
X70950Y-64557D01*
X70950Y-64550D01*
X70519Y-64550D01*
X70471Y-64634D01*
X70563Y-64826D01*
X70721Y-64968D01*
X70780Y-64992D01*
X70614Y-65103D01*
X70496Y-65280D01*
X70455Y-65489D01*
X70455Y-65510D01*
X70496Y-65719D01*
X70614Y-65896D01*
X70770Y-66000D01*
X70614Y-66103D01*
X70496Y-66280D01*
X70455Y-66489D01*
X70455Y-66510D01*
X70496Y-66719D01*
X70614Y-66896D01*
X70702Y-66954D01*
X70655Y-66954D01*
X70563Y-66992D01*
X70493Y-67063D01*
X70455Y-67155D01*
X70454Y-67254D01*
X70454Y-67844D01*
X70492Y-67936D01*
X70563Y-68006D01*
X70655Y-68044D01*
X70754Y-68045D01*
X71344Y-68045D01*
X71436Y-68007D01*
X71506Y-67936D01*
X71544Y-67844D01*
X71545Y-67745D01*
X71545Y-76450D01*
X71270Y-76450D01*
X71270Y-75245D01*
X71270Y-74655D01*
X71232Y-74563D01*
X71161Y-74493D01*
X71069Y-74455D01*
X70970Y-74454D01*
X70797Y-74454D01*
X70885Y-74396D01*
X71003Y-74219D01*
X71045Y-74010D01*
X71045Y-73989D01*
X71003Y-73780D01*
X70885Y-73603D01*
X70729Y-73500D01*
X70885Y-73396D01*
X71003Y-73219D01*
X71045Y-73010D01*
X71045Y-72989D01*
X71003Y-72780D01*
X70885Y-72603D01*
X70797Y-72545D01*
X71069Y-72545D01*
X71161Y-72507D01*
X71231Y-72436D01*
X71269Y-72344D01*
X71270Y-72245D01*
X71270Y-71655D01*
X71232Y-71563D01*
X71161Y-71493D01*
X71069Y-71455D01*
X70970Y-71454D01*
X70330Y-71454D01*
X70238Y-71492D01*
X70168Y-71563D01*
X70130Y-71655D01*
X70129Y-71754D01*
X70129Y-72344D01*
X70167Y-72436D01*
X70238Y-72506D01*
X70251Y-72512D01*
X70120Y-72600D01*
X70120Y-72245D01*
X70120Y-71754D01*
X70119Y-71655D01*
X70081Y-71563D01*
X70011Y-71492D01*
X69919Y-71454D01*
X69662Y-71455D01*
X69600Y-71517D01*
X69600Y-71950D01*
X70057Y-71950D01*
X70120Y-71887D01*
X70120Y-71754D01*
X70120Y-72245D01*
X70120Y-72112D01*
X70057Y-72050D01*
X69600Y-72050D01*
X69600Y-72482D01*
X69662Y-72545D01*
X69919Y-72545D01*
X70011Y-72507D01*
X70081Y-72436D01*
X70119Y-72344D01*
X70120Y-72245D01*
X70120Y-72600D01*
X70114Y-72603D01*
X69996Y-72780D01*
X69961Y-72955D01*
X69949Y-72955D01*
X69949Y-73020D01*
X69865Y-72971D01*
X69721Y-73031D01*
X69563Y-73173D01*
X69500Y-73306D01*
X69500Y-72482D01*
X69500Y-72050D01*
X69500Y-71950D01*
X69500Y-71517D01*
X69437Y-71455D01*
X69425Y-71454D01*
X69425Y-67415D01*
X69360Y-67259D01*
X69300Y-67198D01*
X69300Y-66801D01*
X69360Y-66741D01*
X69424Y-66584D01*
X69425Y-66415D01*
X69360Y-66259D01*
X69241Y-66139D01*
X69084Y-66075D01*
X68915Y-66074D01*
X68759Y-66139D01*
X68639Y-66258D01*
X68575Y-66415D01*
X68574Y-66584D01*
X68639Y-66740D01*
X68700Y-66801D01*
X68700Y-67198D01*
X68639Y-67258D01*
X68575Y-67415D01*
X68574Y-67584D01*
X68639Y-67740D01*
X68758Y-67860D01*
X68915Y-67924D01*
X69084Y-67925D01*
X69240Y-67860D01*
X69360Y-67741D01*
X69424Y-67584D01*
X69425Y-67415D01*
X69425Y-71454D01*
X69180Y-71454D01*
X69088Y-71492D01*
X69018Y-71563D01*
X68980Y-71655D01*
X68979Y-71754D01*
X68980Y-71887D01*
X69042Y-71950D01*
X69500Y-71950D01*
X69500Y-72050D01*
X69042Y-72050D01*
X68980Y-72112D01*
X68979Y-72245D01*
X68980Y-72344D01*
X69018Y-72436D01*
X69088Y-72507D01*
X69180Y-72545D01*
X69437Y-72545D01*
X69500Y-72482D01*
X69500Y-73306D01*
X69471Y-73365D01*
X69519Y-73450D01*
X69950Y-73450D01*
X69950Y-73442D01*
X70050Y-73442D01*
X70050Y-73450D01*
X70057Y-73450D01*
X70057Y-73550D01*
X70050Y-73550D01*
X70050Y-73557D01*
X69950Y-73557D01*
X69950Y-73550D01*
X69519Y-73550D01*
X69471Y-73634D01*
X69563Y-73826D01*
X69721Y-73968D01*
X69865Y-74028D01*
X69949Y-73979D01*
X69949Y-74045D01*
X69950Y-74045D01*
X69961Y-74045D01*
X69996Y-74219D01*
X70114Y-74396D01*
X70251Y-74487D01*
X70238Y-74492D01*
X70168Y-74563D01*
X70130Y-74655D01*
X70129Y-74754D01*
X70129Y-75344D01*
X70167Y-75436D01*
X70238Y-75506D01*
X70330Y-75544D01*
X70429Y-75545D01*
X71069Y-75545D01*
X71161Y-75507D01*
X71231Y-75436D01*
X71269Y-75344D01*
X71270Y-75245D01*
X71270Y-76450D01*
X70120Y-76450D01*
X70120Y-75245D01*
X70120Y-74754D01*
X70119Y-74655D01*
X70081Y-74563D01*
X70011Y-74492D01*
X69950Y-74467D01*
X69919Y-74454D01*
X69662Y-74455D01*
X69600Y-74517D01*
X69600Y-74950D01*
X70057Y-74950D01*
X70120Y-74887D01*
X70120Y-74754D01*
X70120Y-75245D01*
X70120Y-75112D01*
X70057Y-75050D01*
X69600Y-75050D01*
X69600Y-75482D01*
X69662Y-75545D01*
X69919Y-75545D01*
X70011Y-75507D01*
X70081Y-75436D01*
X70119Y-75344D01*
X70120Y-75245D01*
X70120Y-76450D01*
X69500Y-76450D01*
X69500Y-75482D01*
X69500Y-75050D01*
X69500Y-74950D01*
X69500Y-74517D01*
X69437Y-74455D01*
X69180Y-74454D01*
X69088Y-74492D01*
X69018Y-74563D01*
X68980Y-74655D01*
X68979Y-74754D01*
X68980Y-74887D01*
X69042Y-74950D01*
X69500Y-74950D01*
X69500Y-75050D01*
X69042Y-75050D01*
X68980Y-75112D01*
X68979Y-75245D01*
X68980Y-75344D01*
X69018Y-75436D01*
X69088Y-75507D01*
X69180Y-75545D01*
X69437Y-75545D01*
X69500Y-75482D01*
X69500Y-76450D01*
X68545Y-76450D01*
X68545Y-70069D01*
X68545Y-69330D01*
X68507Y-69238D01*
X68436Y-69168D01*
X68344Y-69130D01*
X68245Y-69129D01*
X68112Y-69130D01*
X68050Y-69192D01*
X68050Y-69650D01*
X68482Y-69650D01*
X68545Y-69587D01*
X68545Y-69330D01*
X68545Y-70069D01*
X68545Y-69812D01*
X68482Y-69750D01*
X68050Y-69750D01*
X68050Y-70207D01*
X68112Y-70270D01*
X68245Y-70270D01*
X68344Y-70269D01*
X68436Y-70231D01*
X68507Y-70161D01*
X68545Y-70069D01*
X68545Y-76450D01*
X67950Y-76450D01*
X67950Y-70207D01*
X67950Y-69750D01*
X67950Y-69650D01*
X67950Y-69192D01*
X67887Y-69130D01*
X67754Y-69129D01*
X67655Y-69130D01*
X67563Y-69168D01*
X67492Y-69238D01*
X67454Y-69330D01*
X67455Y-69587D01*
X67517Y-69650D01*
X67950Y-69650D01*
X67950Y-69750D01*
X67517Y-69750D01*
X67455Y-69812D01*
X67454Y-70069D01*
X67492Y-70161D01*
X67563Y-70231D01*
X67655Y-70269D01*
X67754Y-70270D01*
X67887Y-70270D01*
X67950Y-70207D01*
X67950Y-76450D01*
X67295Y-76450D01*
X67295Y-72069D01*
X67295Y-71330D01*
X67295Y-70820D01*
X67295Y-70180D01*
X67257Y-70088D01*
X67186Y-70018D01*
X67094Y-69980D01*
X67009Y-69979D01*
X67135Y-69896D01*
X67253Y-69719D01*
X67295Y-69510D01*
X67295Y-69489D01*
X67253Y-69280D01*
X67135Y-69103D01*
X66958Y-68985D01*
X66750Y-68944D01*
X66541Y-68985D01*
X66364Y-69103D01*
X66246Y-69280D01*
X66205Y-69489D01*
X66205Y-69510D01*
X66246Y-69719D01*
X66364Y-69896D01*
X66490Y-69979D01*
X66405Y-69979D01*
X66313Y-70017D01*
X66243Y-70088D01*
X66205Y-70180D01*
X66204Y-70279D01*
X66204Y-70919D01*
X66242Y-71011D01*
X66313Y-71081D01*
X66405Y-71119D01*
X66504Y-71120D01*
X67094Y-71120D01*
X67186Y-71082D01*
X67256Y-71011D01*
X67294Y-70919D01*
X67295Y-70820D01*
X67295Y-71330D01*
X67257Y-71238D01*
X67186Y-71168D01*
X67094Y-71130D01*
X66995Y-71129D01*
X66862Y-71130D01*
X66800Y-71192D01*
X66800Y-71650D01*
X67232Y-71650D01*
X67295Y-71587D01*
X67295Y-71330D01*
X67295Y-72069D01*
X67295Y-71812D01*
X67232Y-71750D01*
X66800Y-71750D01*
X66800Y-72207D01*
X66862Y-72270D01*
X66995Y-72270D01*
X67094Y-72269D01*
X67186Y-72231D01*
X67257Y-72161D01*
X67295Y-72069D01*
X67295Y-76450D01*
X66700Y-76450D01*
X66700Y-72207D01*
X66700Y-71750D01*
X66700Y-71650D01*
X66700Y-71192D01*
X66637Y-71130D01*
X66504Y-71129D01*
X66405Y-71130D01*
X66313Y-71168D01*
X66242Y-71238D01*
X66204Y-71330D01*
X66205Y-71587D01*
X66267Y-71650D01*
X66700Y-71650D01*
X66700Y-71750D01*
X66267Y-71750D01*
X66205Y-71812D01*
X66204Y-72069D01*
X66242Y-72161D01*
X66313Y-72231D01*
X66405Y-72269D01*
X66504Y-72270D01*
X66637Y-72270D01*
X66700Y-72207D01*
X66700Y-76450D01*
X66120Y-76450D01*
X66120Y-64745D01*
X66120Y-64612D01*
X66057Y-64550D01*
X65600Y-64550D01*
X65600Y-64982D01*
X65662Y-65045D01*
X65919Y-65045D01*
X66011Y-65007D01*
X66081Y-64936D01*
X66119Y-64844D01*
X66120Y-64745D01*
X66120Y-76450D01*
X65500Y-76450D01*
X65500Y-64982D01*
X65500Y-64550D01*
X65042Y-64550D01*
X64980Y-64612D01*
X64979Y-64745D01*
X64980Y-64844D01*
X65018Y-64936D01*
X65088Y-65007D01*
X65180Y-65045D01*
X65437Y-65045D01*
X65500Y-64982D01*
X65500Y-76450D01*
X65295Y-76450D01*
X65295Y-74010D01*
X65295Y-73989D01*
X65295Y-70010D01*
X65295Y-69989D01*
X65253Y-69780D01*
X65135Y-69603D01*
X64958Y-69485D01*
X64925Y-69479D01*
X64925Y-66915D01*
X64860Y-66759D01*
X64741Y-66639D01*
X64584Y-66575D01*
X64415Y-66574D01*
X64259Y-66639D01*
X64139Y-66758D01*
X64075Y-66915D01*
X64075Y-66929D01*
X63305Y-67699D01*
X63305Y-66250D01*
X63264Y-66041D01*
X63146Y-65864D01*
X62969Y-65746D01*
X62778Y-65708D01*
X62778Y-65384D01*
X62778Y-65115D01*
X62718Y-64971D01*
X62576Y-64813D01*
X62384Y-64721D01*
X62300Y-64769D01*
X62300Y-65200D01*
X62729Y-65200D01*
X62778Y-65115D01*
X62778Y-65384D01*
X62729Y-65300D01*
X62300Y-65300D01*
X62300Y-65730D01*
X62384Y-65778D01*
X62576Y-65686D01*
X62718Y-65528D01*
X62778Y-65384D01*
X62778Y-65708D01*
X62760Y-65705D01*
X62739Y-65705D01*
X62530Y-65746D01*
X62353Y-65864D01*
X62235Y-66041D01*
X62200Y-66221D01*
X62200Y-65730D01*
X62200Y-65300D01*
X62200Y-65200D01*
X62200Y-64769D01*
X62115Y-64721D01*
X61923Y-64813D01*
X61781Y-64971D01*
X61721Y-65115D01*
X61770Y-65200D01*
X62200Y-65200D01*
X62200Y-65300D01*
X61770Y-65300D01*
X61721Y-65384D01*
X61781Y-65528D01*
X61923Y-65686D01*
X62115Y-65778D01*
X62200Y-65730D01*
X62200Y-66221D01*
X62194Y-66250D01*
X62235Y-66458D01*
X62353Y-66635D01*
X62530Y-66753D01*
X62739Y-66795D01*
X62760Y-66795D01*
X62969Y-66753D01*
X63146Y-66635D01*
X63264Y-66458D01*
X63305Y-66250D01*
X63305Y-67699D01*
X62930Y-68074D01*
X62915Y-68074D01*
X62759Y-68139D01*
X62639Y-68258D01*
X62575Y-68415D01*
X62574Y-68584D01*
X62639Y-68740D01*
X62758Y-68860D01*
X62915Y-68924D01*
X63084Y-68925D01*
X63240Y-68860D01*
X63360Y-68741D01*
X63424Y-68584D01*
X63424Y-68570D01*
X64569Y-67425D01*
X64584Y-67425D01*
X64740Y-67360D01*
X64860Y-67241D01*
X64924Y-67084D01*
X64925Y-66915D01*
X64925Y-69479D01*
X64750Y-69444D01*
X64541Y-69485D01*
X64364Y-69603D01*
X64246Y-69780D01*
X64205Y-69989D01*
X64205Y-70010D01*
X64246Y-70219D01*
X64364Y-70396D01*
X64541Y-70514D01*
X64750Y-70555D01*
X64958Y-70514D01*
X65135Y-70396D01*
X65253Y-70219D01*
X65295Y-70010D01*
X65295Y-73989D01*
X65253Y-73780D01*
X65135Y-73603D01*
X64958Y-73485D01*
X64750Y-73444D01*
X64541Y-73485D01*
X64364Y-73603D01*
X64246Y-73780D01*
X64205Y-73989D01*
X64205Y-74010D01*
X64246Y-74219D01*
X64364Y-74396D01*
X64541Y-74514D01*
X64750Y-74555D01*
X64958Y-74514D01*
X65135Y-74396D01*
X65253Y-74219D01*
X65295Y-74010D01*
X65295Y-76450D01*
X63595Y-76450D01*
X63595Y-75795D01*
X63595Y-75105D01*
X63557Y-75013D01*
X63486Y-74943D01*
X63394Y-74905D01*
X63295Y-74904D01*
X62605Y-74904D01*
X62513Y-74942D01*
X62443Y-75013D01*
X62420Y-75067D01*
X62227Y-74938D01*
X62000Y-74893D01*
X61772Y-74938D01*
X61579Y-75067D01*
X61500Y-75186D01*
X61425Y-75074D01*
X61425Y-72415D01*
X61360Y-72259D01*
X61241Y-72139D01*
X61084Y-72075D01*
X60915Y-72074D01*
X60759Y-72139D01*
X60749Y-72150D01*
X60251Y-72150D01*
X60241Y-72139D01*
X60175Y-72112D01*
X60175Y-68165D01*
X60110Y-68009D01*
X60100Y-67999D01*
X60100Y-66501D01*
X60110Y-66491D01*
X60174Y-66334D01*
X60175Y-66165D01*
X60110Y-66009D01*
X59991Y-65889D01*
X59834Y-65825D01*
X59795Y-65825D01*
X59795Y-65495D01*
X59795Y-64905D01*
X59757Y-64813D01*
X59686Y-64743D01*
X59594Y-64705D01*
X59495Y-64704D01*
X58905Y-64704D01*
X58813Y-64742D01*
X58743Y-64813D01*
X58705Y-64905D01*
X58704Y-65004D01*
X58704Y-65594D01*
X58742Y-65686D01*
X58761Y-65705D01*
X58760Y-65705D01*
X58739Y-65705D01*
X58530Y-65746D01*
X58353Y-65864D01*
X58235Y-66041D01*
X58194Y-66250D01*
X58235Y-66458D01*
X58353Y-66635D01*
X58530Y-66753D01*
X58739Y-66795D01*
X58760Y-66795D01*
X58969Y-66753D01*
X59146Y-66635D01*
X59264Y-66458D01*
X59305Y-66250D01*
X59264Y-66041D01*
X59146Y-65864D01*
X59041Y-65795D01*
X59594Y-65795D01*
X59686Y-65757D01*
X59756Y-65686D01*
X59794Y-65594D01*
X59795Y-65495D01*
X59795Y-65825D01*
X59665Y-65824D01*
X59509Y-65889D01*
X59389Y-66008D01*
X59325Y-66165D01*
X59324Y-66334D01*
X59389Y-66490D01*
X59400Y-66500D01*
X59400Y-67998D01*
X59389Y-68008D01*
X59325Y-68165D01*
X59324Y-68334D01*
X59389Y-68490D01*
X59508Y-68610D01*
X59665Y-68674D01*
X59834Y-68675D01*
X59990Y-68610D01*
X60110Y-68491D01*
X60174Y-68334D01*
X60175Y-68165D01*
X60175Y-72112D01*
X60084Y-72075D01*
X60020Y-72075D01*
X60020Y-70995D01*
X60020Y-70504D01*
X60019Y-70405D01*
X59981Y-70313D01*
X59911Y-70242D01*
X59819Y-70204D01*
X59562Y-70205D01*
X59500Y-70267D01*
X59500Y-70700D01*
X59957Y-70700D01*
X60020Y-70637D01*
X60020Y-70504D01*
X60020Y-70995D01*
X60020Y-70862D01*
X59957Y-70800D01*
X59500Y-70800D01*
X59500Y-71232D01*
X59562Y-71295D01*
X59819Y-71295D01*
X59911Y-71257D01*
X59981Y-71186D01*
X60019Y-71094D01*
X60020Y-70995D01*
X60020Y-72075D01*
X59915Y-72074D01*
X59759Y-72139D01*
X59639Y-72258D01*
X59575Y-72415D01*
X59574Y-72584D01*
X59639Y-72740D01*
X59758Y-72860D01*
X59915Y-72924D01*
X60084Y-72925D01*
X60240Y-72860D01*
X60250Y-72850D01*
X60748Y-72850D01*
X60758Y-72860D01*
X60915Y-72924D01*
X61084Y-72925D01*
X61240Y-72860D01*
X61360Y-72741D01*
X61424Y-72584D01*
X61425Y-72415D01*
X61425Y-75074D01*
X61420Y-75067D01*
X61227Y-74938D01*
X61000Y-74893D01*
X60772Y-74938D01*
X60579Y-75067D01*
X60450Y-75260D01*
X60405Y-75488D01*
X60405Y-75511D01*
X60450Y-75739D01*
X60579Y-75932D01*
X60772Y-76061D01*
X61000Y-76106D01*
X61227Y-76061D01*
X61420Y-75932D01*
X61500Y-75813D01*
X61579Y-75932D01*
X61772Y-76061D01*
X62000Y-76106D01*
X62227Y-76061D01*
X62420Y-75932D01*
X62442Y-75986D01*
X62513Y-76056D01*
X62605Y-76094D01*
X62704Y-76095D01*
X63394Y-76095D01*
X63486Y-76057D01*
X63556Y-75986D01*
X63594Y-75894D01*
X63595Y-75795D01*
X63595Y-76450D01*
X59400Y-76450D01*
X59400Y-71232D01*
X59400Y-70800D01*
X59400Y-70700D01*
X59400Y-70267D01*
X59337Y-70205D01*
X59080Y-70204D01*
X58988Y-70242D01*
X58918Y-70313D01*
X58880Y-70405D01*
X58879Y-70504D01*
X58880Y-70637D01*
X58942Y-70700D01*
X59400Y-70700D01*
X59400Y-70800D01*
X58942Y-70800D01*
X58880Y-70862D01*
X58879Y-70995D01*
X58880Y-71094D01*
X58918Y-71186D01*
X58988Y-71257D01*
X59080Y-71295D01*
X59337Y-71295D01*
X59400Y-71232D01*
X59400Y-76450D01*
X58870Y-76450D01*
X58870Y-70995D01*
X58870Y-70405D01*
X58832Y-70313D01*
X58761Y-70243D01*
X58669Y-70205D01*
X58570Y-70204D01*
X57930Y-70204D01*
X57838Y-70242D01*
X57770Y-70311D01*
X57770Y-65745D01*
X57770Y-65254D01*
X57769Y-65155D01*
X57731Y-65063D01*
X57661Y-64992D01*
X57569Y-64954D01*
X57312Y-64955D01*
X57250Y-65017D01*
X57250Y-65450D01*
X57707Y-65450D01*
X57770Y-65387D01*
X57770Y-65254D01*
X57770Y-65745D01*
X57770Y-65612D01*
X57707Y-65550D01*
X57250Y-65550D01*
X57250Y-65982D01*
X57312Y-66045D01*
X57569Y-66045D01*
X57661Y-66007D01*
X57731Y-65936D01*
X57769Y-65844D01*
X57770Y-65745D01*
X57770Y-70311D01*
X57768Y-70313D01*
X57730Y-70405D01*
X57729Y-70504D01*
X57729Y-71094D01*
X57767Y-71186D01*
X57838Y-71256D01*
X57930Y-71294D01*
X58029Y-71295D01*
X58669Y-71295D01*
X58761Y-71257D01*
X58831Y-71186D01*
X58869Y-71094D01*
X58870Y-70995D01*
X58870Y-76450D01*
X57680Y-76450D01*
X57680Y-66625D01*
X57639Y-66416D01*
X57521Y-66239D01*
X57344Y-66121D01*
X57150Y-66082D01*
X57150Y-65982D01*
X57150Y-65550D01*
X57150Y-65450D01*
X57150Y-65017D01*
X57087Y-64955D01*
X56830Y-64954D01*
X56738Y-64992D01*
X56668Y-65063D01*
X56630Y-65155D01*
X56629Y-65254D01*
X56630Y-65387D01*
X56692Y-65450D01*
X57150Y-65450D01*
X57150Y-65550D01*
X56692Y-65550D01*
X56630Y-65612D01*
X56629Y-65745D01*
X56630Y-65844D01*
X56668Y-65936D01*
X56738Y-66007D01*
X56830Y-66045D01*
X57087Y-66045D01*
X57150Y-65982D01*
X57150Y-66082D01*
X57135Y-66080D01*
X57114Y-66080D01*
X56905Y-66121D01*
X56728Y-66239D01*
X56625Y-66395D01*
X56620Y-66387D01*
X56620Y-65745D01*
X56620Y-65155D01*
X56582Y-65063D01*
X56511Y-64993D01*
X56419Y-64955D01*
X56320Y-64954D01*
X55680Y-64954D01*
X55588Y-64992D01*
X55518Y-65063D01*
X55480Y-65155D01*
X55479Y-65254D01*
X55479Y-65844D01*
X55517Y-65936D01*
X55588Y-66006D01*
X55680Y-66044D01*
X55779Y-66045D01*
X56419Y-66045D01*
X56511Y-66007D01*
X56581Y-65936D01*
X56619Y-65844D01*
X56620Y-65745D01*
X56620Y-66387D01*
X56521Y-66239D01*
X56344Y-66121D01*
X56135Y-66080D01*
X56114Y-66080D01*
X55905Y-66121D01*
X55728Y-66239D01*
X55625Y-66395D01*
X55521Y-66239D01*
X55344Y-66121D01*
X55135Y-66080D01*
X55114Y-66080D01*
X55020Y-66098D01*
X55020Y-65745D01*
X55020Y-65155D01*
X54982Y-65063D01*
X54911Y-64993D01*
X54819Y-64955D01*
X54720Y-64954D01*
X54080Y-64954D01*
X53988Y-64992D01*
X53918Y-65063D01*
X53880Y-65155D01*
X53879Y-65254D01*
X53879Y-65844D01*
X53917Y-65936D01*
X53988Y-66006D01*
X54080Y-66044D01*
X54179Y-66045D01*
X54819Y-66045D01*
X54911Y-66007D01*
X54981Y-65936D01*
X55019Y-65844D01*
X55020Y-65745D01*
X55020Y-66098D01*
X54905Y-66121D01*
X54728Y-66239D01*
X54625Y-66395D01*
X54521Y-66239D01*
X54344Y-66121D01*
X54135Y-66080D01*
X54114Y-66080D01*
X53905Y-66121D01*
X53870Y-66145D01*
X53870Y-65745D01*
X53870Y-65254D01*
X53869Y-65155D01*
X53831Y-65063D01*
X53761Y-64992D01*
X53669Y-64954D01*
X53412Y-64955D01*
X53350Y-65017D01*
X53350Y-65450D01*
X53807Y-65450D01*
X53870Y-65387D01*
X53870Y-65254D01*
X53870Y-65745D01*
X53870Y-65612D01*
X53807Y-65550D01*
X53350Y-65550D01*
X53350Y-65982D01*
X53412Y-66045D01*
X53669Y-66045D01*
X53761Y-66007D01*
X53831Y-65936D01*
X53869Y-65844D01*
X53870Y-65745D01*
X53870Y-66145D01*
X53728Y-66239D01*
X53610Y-66416D01*
X53569Y-66625D01*
X53610Y-66833D01*
X53728Y-67010D01*
X53905Y-67128D01*
X54114Y-67170D01*
X54135Y-67170D01*
X54252Y-67146D01*
X54139Y-67258D01*
X54075Y-67415D01*
X54074Y-67584D01*
X54139Y-67740D01*
X54258Y-67860D01*
X54415Y-67924D01*
X54584Y-67925D01*
X54740Y-67860D01*
X54801Y-67800D01*
X55698Y-67800D01*
X55758Y-67860D01*
X55915Y-67924D01*
X56084Y-67925D01*
X56240Y-67860D01*
X56360Y-67741D01*
X56424Y-67584D01*
X56425Y-67415D01*
X56360Y-67259D01*
X56248Y-67147D01*
X56344Y-67128D01*
X56521Y-67010D01*
X56625Y-66854D01*
X56728Y-67010D01*
X56905Y-67128D01*
X57114Y-67170D01*
X57135Y-67170D01*
X57344Y-67128D01*
X57521Y-67010D01*
X57639Y-66833D01*
X57680Y-66625D01*
X57680Y-76450D01*
X57670Y-76450D01*
X57670Y-74635D01*
X57670Y-74614D01*
X57653Y-74529D01*
X57653Y-70759D01*
X57653Y-70490D01*
X57561Y-70298D01*
X57403Y-70156D01*
X57322Y-70123D01*
X57451Y-70061D01*
X57593Y-69903D01*
X57653Y-69759D01*
X57653Y-69490D01*
X57593Y-69346D01*
X57451Y-69188D01*
X57259Y-69096D01*
X57175Y-69144D01*
X57175Y-69575D01*
X57604Y-69575D01*
X57653Y-69490D01*
X57653Y-69759D01*
X57604Y-69675D01*
X57175Y-69675D01*
X57175Y-70105D01*
X57209Y-70125D01*
X57175Y-70145D01*
X57175Y-70575D01*
X57605Y-70575D01*
X57653Y-70490D01*
X57653Y-70759D01*
X57605Y-70675D01*
X57175Y-70675D01*
X57175Y-71104D01*
X57259Y-71153D01*
X57403Y-71093D01*
X57561Y-70951D01*
X57653Y-70759D01*
X57653Y-74529D01*
X57628Y-74405D01*
X57510Y-74228D01*
X57333Y-74110D01*
X57125Y-74069D01*
X57075Y-74079D01*
X57075Y-71104D01*
X57075Y-70675D01*
X57067Y-70675D01*
X57067Y-70575D01*
X57075Y-70575D01*
X57075Y-70145D01*
X57040Y-70125D01*
X57075Y-70105D01*
X57075Y-69675D01*
X57067Y-69675D01*
X57067Y-69575D01*
X57075Y-69575D01*
X57075Y-69144D01*
X56990Y-69096D01*
X56798Y-69188D01*
X56656Y-69346D01*
X56632Y-69405D01*
X56521Y-69239D01*
X56344Y-69121D01*
X56135Y-69080D01*
X56114Y-69080D01*
X55905Y-69121D01*
X55728Y-69239D01*
X55625Y-69395D01*
X55521Y-69239D01*
X55344Y-69121D01*
X55135Y-69080D01*
X55114Y-69080D01*
X54905Y-69121D01*
X54728Y-69239D01*
X54670Y-69327D01*
X54670Y-69280D01*
X54632Y-69188D01*
X54561Y-69118D01*
X54469Y-69080D01*
X54370Y-69079D01*
X53780Y-69079D01*
X53688Y-69117D01*
X53618Y-69188D01*
X53580Y-69280D01*
X53579Y-69379D01*
X53579Y-69969D01*
X53617Y-70061D01*
X53688Y-70131D01*
X53780Y-70169D01*
X53827Y-70169D01*
X53739Y-70228D01*
X53625Y-70400D01*
X53520Y-70243D01*
X53520Y-68995D01*
X53520Y-68405D01*
X53482Y-68313D01*
X53411Y-68243D01*
X53319Y-68205D01*
X53250Y-68204D01*
X53250Y-65982D01*
X53250Y-65550D01*
X53250Y-65450D01*
X53250Y-65017D01*
X53187Y-64955D01*
X52930Y-64954D01*
X52838Y-64992D01*
X52768Y-65063D01*
X52730Y-65155D01*
X52729Y-65254D01*
X52730Y-65387D01*
X52792Y-65450D01*
X53250Y-65450D01*
X53250Y-65550D01*
X52792Y-65550D01*
X52730Y-65612D01*
X52729Y-65745D01*
X52730Y-65844D01*
X52768Y-65936D01*
X52838Y-66007D01*
X52930Y-66045D01*
X53187Y-66045D01*
X53250Y-65982D01*
X53250Y-68204D01*
X53220Y-68204D01*
X52580Y-68204D01*
X52488Y-68242D01*
X52418Y-68313D01*
X52380Y-68405D01*
X52379Y-68504D01*
X52379Y-69094D01*
X52417Y-69186D01*
X52488Y-69256D01*
X52580Y-69294D01*
X52679Y-69295D01*
X53319Y-69295D01*
X53411Y-69257D01*
X53481Y-69186D01*
X53519Y-69094D01*
X53520Y-68995D01*
X53520Y-70243D01*
X53510Y-70228D01*
X53333Y-70110D01*
X53125Y-70069D01*
X52916Y-70110D01*
X52739Y-70228D01*
X52621Y-70405D01*
X52580Y-70614D01*
X52580Y-70635D01*
X52621Y-70844D01*
X52739Y-71021D01*
X52916Y-71139D01*
X53125Y-71180D01*
X53333Y-71139D01*
X53510Y-71021D01*
X53625Y-70849D01*
X53739Y-71021D01*
X53916Y-71139D01*
X54125Y-71180D01*
X54333Y-71139D01*
X54510Y-71021D01*
X54625Y-70849D01*
X54739Y-71021D01*
X54916Y-71139D01*
X55125Y-71180D01*
X55333Y-71139D01*
X55510Y-71021D01*
X55625Y-70849D01*
X55739Y-71021D01*
X55916Y-71139D01*
X56125Y-71180D01*
X56333Y-71139D01*
X56510Y-71021D01*
X56628Y-70844D01*
X56631Y-70831D01*
X56688Y-70951D01*
X56846Y-71093D01*
X56990Y-71153D01*
X57075Y-71104D01*
X57075Y-74079D01*
X56925Y-74109D01*
X56925Y-72415D01*
X56860Y-72259D01*
X56741Y-72139D01*
X56584Y-72075D01*
X56415Y-72074D01*
X56259Y-72139D01*
X56249Y-72150D01*
X56001Y-72150D01*
X55991Y-72139D01*
X55834Y-72075D01*
X55665Y-72074D01*
X55509Y-72139D01*
X55389Y-72258D01*
X55325Y-72415D01*
X55324Y-72584D01*
X55389Y-72740D01*
X55508Y-72860D01*
X55665Y-72924D01*
X55834Y-72925D01*
X55990Y-72860D01*
X56000Y-72850D01*
X56248Y-72850D01*
X56258Y-72860D01*
X56415Y-72924D01*
X56584Y-72925D01*
X56740Y-72860D01*
X56860Y-72741D01*
X56924Y-72584D01*
X56925Y-72415D01*
X56925Y-74109D01*
X56916Y-74110D01*
X56739Y-74228D01*
X56625Y-74400D01*
X56510Y-74228D01*
X56333Y-74110D01*
X56125Y-74069D01*
X55916Y-74110D01*
X55739Y-74228D01*
X55621Y-74405D01*
X55618Y-74418D01*
X55561Y-74298D01*
X55403Y-74156D01*
X55259Y-74096D01*
X55175Y-74145D01*
X55175Y-74575D01*
X55182Y-74575D01*
X55182Y-74675D01*
X55175Y-74675D01*
X55175Y-75104D01*
X55259Y-75153D01*
X55403Y-75093D01*
X55561Y-74951D01*
X55618Y-74831D01*
X55621Y-74844D01*
X55739Y-75021D01*
X55916Y-75139D01*
X56125Y-75180D01*
X56333Y-75139D01*
X56510Y-75021D01*
X56625Y-74849D01*
X56739Y-75021D01*
X56916Y-75139D01*
X57125Y-75180D01*
X57333Y-75139D01*
X57510Y-75021D01*
X57628Y-74844D01*
X57670Y-74635D01*
X57670Y-76450D01*
X55075Y-76450D01*
X55075Y-75104D01*
X55075Y-74675D01*
X55067Y-74675D01*
X55067Y-74575D01*
X55075Y-74575D01*
X55075Y-74145D01*
X54990Y-74096D01*
X54925Y-74123D01*
X54925Y-72415D01*
X54860Y-72259D01*
X54741Y-72139D01*
X54584Y-72075D01*
X54415Y-72074D01*
X54259Y-72139D01*
X54249Y-72150D01*
X54001Y-72150D01*
X53991Y-72139D01*
X53834Y-72075D01*
X53665Y-72074D01*
X53509Y-72139D01*
X53389Y-72258D01*
X53325Y-72415D01*
X53324Y-72584D01*
X53389Y-72740D01*
X53508Y-72860D01*
X53665Y-72924D01*
X53834Y-72925D01*
X53990Y-72860D01*
X54000Y-72850D01*
X54248Y-72850D01*
X54258Y-72860D01*
X54415Y-72924D01*
X54584Y-72925D01*
X54740Y-72860D01*
X54860Y-72741D01*
X54924Y-72584D01*
X54925Y-72415D01*
X54925Y-74123D01*
X54846Y-74156D01*
X54688Y-74298D01*
X54631Y-74418D01*
X54628Y-74405D01*
X54510Y-74228D01*
X54333Y-74110D01*
X54125Y-74069D01*
X53916Y-74110D01*
X53739Y-74228D01*
X53625Y-74400D01*
X53510Y-74228D01*
X53333Y-74110D01*
X53125Y-74069D01*
X52916Y-74110D01*
X52739Y-74228D01*
X52621Y-74405D01*
X52580Y-74614D01*
X52580Y-74635D01*
X52621Y-74844D01*
X52739Y-75021D01*
X52916Y-75139D01*
X53125Y-75180D01*
X53333Y-75139D01*
X53510Y-75021D01*
X53625Y-74849D01*
X53739Y-75021D01*
X53916Y-75139D01*
X54125Y-75180D01*
X54333Y-75139D01*
X54510Y-75021D01*
X54628Y-74844D01*
X54631Y-74831D01*
X54688Y-74951D01*
X54846Y-75093D01*
X54990Y-75153D01*
X55075Y-75104D01*
X55075Y-76450D01*
X52370Y-76450D01*
X52370Y-68995D01*
X52370Y-68504D01*
X52369Y-68405D01*
X52331Y-68313D01*
X52261Y-68242D01*
X52169Y-68204D01*
X51912Y-68205D01*
X51850Y-68267D01*
X51850Y-68700D01*
X52307Y-68700D01*
X52370Y-68637D01*
X52370Y-68504D01*
X52370Y-68995D01*
X52370Y-68862D01*
X52307Y-68800D01*
X51850Y-68800D01*
X51850Y-69232D01*
X51912Y-69295D01*
X52169Y-69295D01*
X52261Y-69257D01*
X52331Y-69186D01*
X52369Y-69094D01*
X52370Y-68995D01*
X52370Y-76450D01*
X51750Y-76450D01*
X51750Y-69232D01*
X51750Y-68800D01*
X51750Y-68700D01*
X51750Y-68267D01*
X51687Y-68205D01*
X51430Y-68204D01*
X51338Y-68242D01*
X51268Y-68313D01*
X51230Y-68405D01*
X51229Y-68504D01*
X51230Y-68637D01*
X51292Y-68700D01*
X51750Y-68700D01*
X51750Y-68800D01*
X51292Y-68800D01*
X51230Y-68862D01*
X51229Y-68995D01*
X51230Y-69094D01*
X51268Y-69186D01*
X51338Y-69257D01*
X51430Y-69295D01*
X51687Y-69295D01*
X51750Y-69232D01*
X51750Y-76450D01*
X51095Y-76450D01*
X51095Y-74015D01*
X51095Y-73639D01*
X51095Y-67360D01*
X51095Y-66984D01*
X51049Y-66757D01*
X50920Y-66564D01*
X50727Y-66435D01*
X50500Y-66389D01*
X50272Y-66435D01*
X50079Y-66564D01*
X49950Y-66757D01*
X49905Y-66984D01*
X49905Y-67360D01*
X49950Y-67587D01*
X50079Y-67780D01*
X50272Y-67909D01*
X50500Y-67955D01*
X50727Y-67909D01*
X50920Y-67780D01*
X51049Y-67587D01*
X51095Y-67360D01*
X51095Y-73639D01*
X51049Y-73412D01*
X50920Y-73219D01*
X50727Y-73090D01*
X50500Y-73044D01*
X50272Y-73090D01*
X50079Y-73219D01*
X49950Y-73412D01*
X49905Y-73639D01*
X49905Y-74015D01*
X49950Y-74242D01*
X50079Y-74435D01*
X50272Y-74564D01*
X50500Y-74610D01*
X50727Y-74564D01*
X50920Y-74435D01*
X51049Y-74242D01*
X51095Y-74015D01*
X51095Y-76450D01*
X49095Y-76450D01*
X49095Y-74015D01*
X49095Y-73639D01*
X49095Y-67360D01*
X49095Y-66984D01*
X49049Y-66757D01*
X48920Y-66564D01*
X48727Y-66435D01*
X48500Y-66389D01*
X48272Y-66435D01*
X48079Y-66564D01*
X47950Y-66757D01*
X47905Y-66984D01*
X47905Y-67360D01*
X47950Y-67587D01*
X48079Y-67780D01*
X48272Y-67909D01*
X48500Y-67955D01*
X48727Y-67909D01*
X48920Y-67780D01*
X49049Y-67587D01*
X49095Y-67360D01*
X49095Y-73639D01*
X49049Y-73412D01*
X48920Y-73219D01*
X48727Y-73090D01*
X48500Y-73044D01*
X48272Y-73090D01*
X48079Y-73219D01*
X47950Y-73412D01*
X47905Y-73639D01*
X47905Y-74015D01*
X47950Y-74242D01*
X48079Y-74435D01*
X48272Y-74564D01*
X48500Y-74610D01*
X48727Y-74564D01*
X48920Y-74435D01*
X49049Y-74242D01*
X49095Y-74015D01*
X49095Y-76450D01*
X47095Y-76450D01*
X47095Y-74015D01*
X47095Y-73639D01*
X47095Y-67395D01*
X47095Y-67222D01*
X47095Y-67122D01*
X47095Y-66950D01*
X47077Y-66890D01*
X47077Y-65642D01*
X47030Y-65550D01*
X46550Y-65550D01*
X46550Y-66030D01*
X46642Y-66077D01*
X46808Y-66009D01*
X46979Y-65852D01*
X47077Y-65642D01*
X47077Y-66890D01*
X47030Y-66726D01*
X46885Y-66543D01*
X46681Y-66431D01*
X46642Y-66422D01*
X46550Y-66469D01*
X46550Y-67122D01*
X47095Y-67122D01*
X47095Y-67222D01*
X46550Y-67222D01*
X46550Y-67875D01*
X46642Y-67922D01*
X46681Y-67913D01*
X46885Y-67801D01*
X47030Y-67618D01*
X47095Y-67395D01*
X47095Y-73639D01*
X47049Y-73412D01*
X46920Y-73219D01*
X46727Y-73090D01*
X46500Y-73044D01*
X46450Y-73054D01*
X46450Y-67875D01*
X46450Y-67222D01*
X46450Y-67122D01*
X46450Y-66469D01*
X46450Y-66030D01*
X46450Y-65550D01*
X45969Y-65550D01*
X45922Y-65642D01*
X46020Y-65852D01*
X46191Y-66009D01*
X46357Y-66077D01*
X46450Y-66030D01*
X46450Y-66469D01*
X46357Y-66422D01*
X46318Y-66431D01*
X46114Y-66543D01*
X45969Y-66726D01*
X45905Y-66950D01*
X45905Y-67122D01*
X46450Y-67122D01*
X46450Y-67222D01*
X45905Y-67222D01*
X45905Y-67395D01*
X45969Y-67618D01*
X46114Y-67801D01*
X46318Y-67913D01*
X46357Y-67922D01*
X46450Y-67875D01*
X46450Y-73054D01*
X46272Y-73090D01*
X46079Y-73219D01*
X45950Y-73412D01*
X45905Y-73639D01*
X45905Y-74015D01*
X45950Y-74242D01*
X46079Y-74435D01*
X46272Y-74564D01*
X46500Y-74610D01*
X46727Y-74564D01*
X46920Y-74435D01*
X47049Y-74242D01*
X47095Y-74015D01*
X47095Y-76450D01*
X46020Y-76450D01*
X45800Y-76229D01*
X45800Y-64270D01*
X45904Y-64165D01*
X45904Y-64204D01*
X45904Y-64894D01*
X45942Y-64986D01*
X46013Y-65056D01*
X46086Y-65087D01*
X46020Y-65147D01*
X45922Y-65357D01*
X45969Y-65450D01*
X46450Y-65450D01*
X46450Y-65442D01*
X46550Y-65442D01*
X46550Y-65450D01*
X47030Y-65450D01*
X47077Y-65357D01*
X46979Y-65147D01*
X46913Y-65087D01*
X46986Y-65057D01*
X47056Y-64986D01*
X47094Y-64894D01*
X47095Y-64795D01*
X47095Y-64105D01*
X47072Y-64050D01*
X47700Y-64050D01*
X47603Y-64114D01*
X47485Y-64291D01*
X47444Y-64500D01*
X47485Y-64708D01*
X47603Y-64885D01*
X47780Y-65003D01*
X47989Y-65045D01*
X48010Y-65045D01*
X48219Y-65003D01*
X48396Y-64885D01*
X48514Y-64708D01*
X48555Y-64500D01*
X48514Y-64291D01*
X48396Y-64114D01*
X48299Y-64050D01*
X51700Y-64050D01*
X51603Y-64114D01*
X51485Y-64291D01*
X51444Y-64500D01*
X51485Y-64708D01*
X51603Y-64885D01*
X51780Y-65003D01*
X51989Y-65045D01*
X52010Y-65045D01*
X52219Y-65003D01*
X52396Y-64885D01*
X52514Y-64708D01*
X52555Y-64500D01*
X52514Y-64291D01*
X52396Y-64114D01*
X52299Y-64050D01*
X65031Y-64050D01*
X65018Y-64063D01*
X64980Y-64155D01*
X64979Y-64254D01*
X64980Y-64387D01*
X65042Y-64450D01*
X65500Y-64450D01*
X65500Y-64442D01*
X65600Y-64442D01*
X65600Y-64450D01*
X66057Y-64450D01*
X66120Y-64387D01*
X66120Y-64254D01*
X66119Y-64155D01*
X66081Y-64063D01*
X66068Y-64050D01*
X66181Y-64050D01*
X66168Y-64063D01*
X66130Y-64155D01*
X66129Y-64254D01*
X66129Y-64844D01*
X66167Y-64936D01*
X66238Y-65006D01*
X66330Y-65044D01*
X66429Y-65045D01*
X66452Y-65045D01*
X66364Y-65103D01*
X66246Y-65280D01*
X66205Y-65489D01*
X66205Y-65510D01*
X66246Y-65719D01*
X66364Y-65896D01*
X66541Y-66014D01*
X66750Y-66055D01*
X66958Y-66014D01*
X67135Y-65896D01*
X67253Y-65719D01*
X67295Y-65510D01*
X67295Y-65489D01*
X67253Y-65280D01*
X67135Y-65103D01*
X67047Y-65045D01*
X67069Y-65045D01*
X67161Y-65007D01*
X67231Y-64936D01*
X67269Y-64844D01*
X67270Y-64745D01*
X67270Y-64155D01*
X67232Y-64063D01*
X67218Y-64050D01*
X67695Y-64050D01*
X67614Y-64103D01*
X67496Y-64280D01*
X67455Y-64489D01*
X67455Y-64510D01*
X67496Y-64719D01*
X67614Y-64896D01*
X67770Y-65000D01*
X67614Y-65103D01*
X67496Y-65280D01*
X67455Y-65489D01*
X67455Y-65510D01*
X67496Y-65719D01*
X67614Y-65896D01*
X67770Y-66000D01*
X67614Y-66103D01*
X67496Y-66280D01*
X67455Y-66489D01*
X67455Y-66510D01*
X67496Y-66719D01*
X67614Y-66896D01*
X67770Y-67000D01*
X67614Y-67103D01*
X67496Y-67280D01*
X67455Y-67489D01*
X67455Y-67510D01*
X67496Y-67719D01*
X67614Y-67896D01*
X67740Y-67979D01*
X67655Y-67979D01*
X67563Y-68017D01*
X67493Y-68088D01*
X67455Y-68180D01*
X67454Y-68279D01*
X67454Y-68919D01*
X67492Y-69011D01*
X67563Y-69081D01*
X67655Y-69119D01*
X67754Y-69120D01*
X68344Y-69120D01*
X68436Y-69082D01*
X68506Y-69011D01*
X68544Y-68919D01*
X68545Y-68820D01*
X68545Y-68180D01*
X68507Y-68088D01*
X68436Y-68018D01*
X68344Y-67980D01*
X68259Y-67979D01*
X68385Y-67896D01*
X68503Y-67719D01*
X68545Y-67510D01*
X68545Y-67489D01*
X68503Y-67280D01*
X68385Y-67103D01*
X68229Y-67000D01*
X68385Y-66896D01*
X68503Y-66719D01*
X68545Y-66510D01*
X68545Y-66489D01*
X68503Y-66280D01*
X68385Y-66103D01*
X68229Y-66000D01*
X68385Y-65896D01*
X68503Y-65719D01*
X68545Y-65510D01*
X68545Y-65489D01*
X68503Y-65280D01*
X68385Y-65103D01*
X68229Y-65000D01*
X68385Y-64896D01*
X68503Y-64719D01*
X68545Y-64510D01*
X68545Y-64489D01*
X68503Y-64280D01*
X68385Y-64103D01*
X68304Y-64050D01*
X70700Y-64050D01*
X70563Y-64173D01*
X70471Y-64365D01*
X70519Y-64450D01*
X70950Y-64450D01*
X70950Y-64442D01*
X71050Y-64442D01*
X71050Y-64450D01*
X71480Y-64450D01*
X71528Y-64365D01*
X71436Y-64173D01*
X71299Y-64050D01*
X73927Y-64050D01*
X73905Y-64105D01*
X73904Y-64204D01*
X73904Y-64894D01*
X73942Y-64986D01*
X74013Y-65056D01*
X74105Y-65094D01*
X74204Y-65095D01*
X74894Y-65095D01*
X74986Y-65057D01*
X75056Y-64986D01*
X75082Y-64924D01*
X75162Y-65004D01*
X75381Y-65094D01*
X75617Y-65095D01*
X75836Y-65004D01*
X76000Y-64841D01*
X76162Y-65004D01*
X76381Y-65094D01*
X76617Y-65095D01*
X76836Y-65004D01*
X77004Y-64837D01*
X77009Y-64824D01*
X77081Y-64847D01*
X77429Y-64500D01*
X77081Y-64152D01*
X77009Y-64175D01*
X77004Y-64163D01*
X76891Y-64050D01*
X77162Y-64050D01*
X77152Y-64081D01*
X77500Y-64429D01*
X77847Y-64081D01*
X77837Y-64050D01*
X77979Y-64050D01*
X78200Y-64270D01*
X78200Y-76229D01*
M02*
