G04 (created by PCBNEW (22-Jun-2014 BZR 4027)-stable) date Sun 11 Feb 2018 07:20:56 AM CST*
%MOIN*%
G04 Gerber Fmt 3.4, Leading zero omitted, Abs format*
%FSLAX34Y34*%
G01*
G70*
G90*
G04 APERTURE LIST*
%ADD10C,0.00590551*%
%ADD11R,0.069X0.069*%
%ADD12O,0.069X0.069*%
%ADD13C,0.069*%
%ADD14O,0.059X0.059*%
%ADD15R,0.059X0.059*%
%ADD16R,0.064X0.059*%
%ADD17R,0.059X0.064*%
%ADD18O,0.069X0.1035*%
%ADD19C,0.035*%
%ADD20C,0.02*%
%ADD21C,0.03*%
%ADD22C,0.06*%
%ADD23C,0.01*%
G04 APERTURE END LIST*
G54D10*
G54D11*
X63000Y-75500D03*
G54D12*
X62000Y-75500D03*
X61000Y-75500D03*
G54D11*
X74500Y-64500D03*
G54D13*
X75500Y-64500D03*
X76500Y-64500D03*
X77500Y-64500D03*
G54D14*
X70500Y-74000D03*
X70000Y-73500D03*
X70500Y-73000D03*
G54D11*
X77500Y-76000D03*
G54D13*
X77500Y-75000D03*
G54D11*
X46500Y-64500D03*
G54D12*
X46500Y-65500D03*
G54D15*
X54125Y-69625D03*
G54D14*
X55125Y-69625D03*
X56125Y-69625D03*
X57125Y-69625D03*
X57125Y-66625D03*
X56125Y-66625D03*
X54125Y-66625D03*
X55125Y-66625D03*
G54D15*
X71000Y-67500D03*
G54D14*
X71000Y-66500D03*
X71000Y-65500D03*
X71000Y-64500D03*
X68000Y-64500D03*
X68000Y-65500D03*
X68000Y-67500D03*
X68000Y-66500D03*
G54D15*
X59250Y-65250D03*
G54D14*
X62250Y-65250D03*
G54D16*
X58300Y-70750D03*
X59450Y-70750D03*
X66700Y-64500D03*
X65550Y-64500D03*
X70700Y-72000D03*
X69550Y-72000D03*
G54D17*
X68000Y-68550D03*
X68000Y-69700D03*
G54D16*
X70700Y-75000D03*
X69550Y-75000D03*
X54450Y-65500D03*
X53300Y-65500D03*
X52950Y-68750D03*
X51800Y-68750D03*
G54D17*
X66750Y-70550D03*
X66750Y-71700D03*
G54D16*
X56050Y-65500D03*
X57200Y-65500D03*
G54D14*
X64750Y-74000D03*
X64750Y-70000D03*
X66750Y-69500D03*
X66750Y-65500D03*
X57125Y-74625D03*
X57125Y-70625D03*
X56125Y-74625D03*
X56125Y-70625D03*
X55125Y-74625D03*
X55125Y-70625D03*
X54125Y-70625D03*
X54125Y-74625D03*
X53125Y-74625D03*
X53125Y-70625D03*
G54D18*
X72750Y-66922D03*
X72750Y-73577D03*
X74750Y-73577D03*
X74750Y-66922D03*
X77500Y-66922D03*
X77500Y-73577D03*
X46500Y-67172D03*
X46500Y-73827D03*
X48500Y-73827D03*
X48500Y-67172D03*
X50500Y-67172D03*
X50500Y-73827D03*
G54D14*
X48000Y-64500D03*
X52000Y-64500D03*
X58750Y-66250D03*
X62750Y-66250D03*
G54D11*
X76150Y-71000D03*
G54D12*
X76150Y-75000D03*
G54D19*
X59750Y-68250D03*
X59750Y-66250D03*
X53750Y-72500D03*
X54500Y-72500D03*
X55750Y-72500D03*
X56500Y-72500D03*
X60000Y-72500D03*
X61000Y-72500D03*
X63000Y-68500D03*
X64500Y-67000D03*
X69000Y-67500D03*
X69000Y-66500D03*
X56000Y-67500D03*
X54500Y-67500D03*
G54D20*
X71000Y-74000D02*
X71000Y-73500D01*
G54D21*
X76150Y-69650D02*
X74500Y-68000D01*
X72000Y-67000D02*
X72000Y-71750D01*
X70500Y-74000D02*
X71000Y-74000D01*
X73500Y-67000D02*
X73500Y-66500D01*
X73500Y-66500D02*
X73000Y-66000D01*
X73000Y-66000D02*
X72500Y-66000D01*
X72500Y-66000D02*
X72000Y-66500D01*
X72000Y-66500D02*
X72000Y-67000D01*
X74500Y-68000D02*
X73500Y-67000D01*
X76150Y-69650D02*
X76150Y-71000D01*
G54D20*
X71500Y-72250D02*
X72000Y-71750D01*
X71500Y-72500D02*
X71500Y-72250D01*
X71250Y-72750D02*
X71500Y-72500D01*
X71250Y-73250D02*
X71250Y-72750D01*
X71000Y-73500D02*
X71250Y-73250D01*
G54D22*
X76150Y-71000D02*
X76150Y-72400D01*
X76150Y-72400D02*
X77500Y-73750D01*
G54D23*
X67500Y-70500D02*
X67500Y-70250D01*
X67500Y-70250D02*
X67250Y-70000D01*
X67250Y-70000D02*
X67250Y-69250D01*
X67250Y-69250D02*
X67000Y-69000D01*
X67000Y-69000D02*
X66000Y-69000D01*
G54D20*
X66000Y-69000D02*
X65000Y-69000D01*
X70500Y-74000D02*
X69500Y-74000D01*
X67500Y-72000D02*
X67500Y-70500D01*
X69500Y-74000D02*
X67500Y-72000D01*
X54750Y-65500D02*
X54500Y-65500D01*
X55500Y-64750D02*
X54750Y-65500D01*
X56500Y-64750D02*
X55500Y-64750D01*
X57750Y-64750D02*
X56500Y-64750D01*
X58250Y-65250D02*
X57750Y-64750D01*
X58250Y-65750D02*
X58250Y-65250D01*
X58250Y-66500D02*
X58250Y-65750D01*
X58500Y-66750D02*
X58250Y-66500D01*
X58750Y-67000D02*
X58500Y-66750D01*
X63000Y-67000D02*
X58750Y-67000D01*
X65000Y-69000D02*
X63000Y-67000D01*
X65000Y-69000D02*
X65000Y-69000D01*
G54D21*
X54125Y-66625D02*
X54125Y-65875D01*
X54125Y-65875D02*
X54500Y-65500D01*
X70750Y-75000D02*
X70750Y-74250D01*
X70750Y-74250D02*
X70500Y-74000D01*
G54D20*
X59250Y-65250D02*
X59250Y-65750D01*
X56750Y-75250D02*
X56125Y-74625D01*
X58000Y-75250D02*
X56750Y-75250D01*
X60500Y-72750D02*
X58000Y-75250D01*
X60500Y-69250D02*
X60500Y-72750D01*
X59750Y-68250D02*
X60500Y-69250D01*
X59250Y-65750D02*
X59750Y-66250D01*
G54D23*
X54125Y-74625D02*
X54750Y-75250D01*
X54750Y-75250D02*
X55500Y-75250D01*
X55500Y-75250D02*
X56125Y-74625D01*
G54D21*
X59250Y-65250D02*
X61250Y-65250D01*
X66000Y-65250D02*
X66750Y-64500D01*
X63500Y-65250D02*
X66000Y-65250D01*
X62750Y-64500D02*
X63500Y-65250D01*
X62000Y-64500D02*
X62750Y-64500D01*
X61250Y-65250D02*
X62000Y-64500D01*
X58750Y-66250D02*
X58750Y-65750D01*
X58750Y-65750D02*
X59250Y-65250D01*
X66750Y-64500D02*
X68000Y-64500D01*
X65500Y-68500D02*
X65000Y-68500D01*
X68000Y-68500D02*
X65500Y-68500D01*
X65000Y-68500D02*
X62750Y-66250D01*
X68000Y-68500D02*
X68750Y-68500D01*
X70750Y-70500D02*
X70750Y-72000D01*
X68750Y-68500D02*
X70750Y-70500D01*
X70500Y-73000D02*
X70500Y-72250D01*
X70500Y-72250D02*
X70750Y-72000D01*
X68000Y-67500D02*
X68000Y-68500D01*
G54D23*
X68000Y-67500D02*
X68500Y-67500D01*
X74000Y-65000D02*
X74500Y-64500D01*
X70250Y-65000D02*
X74000Y-65000D01*
X69500Y-65750D02*
X70250Y-65000D01*
X69500Y-66500D02*
X69500Y-65750D01*
X68500Y-67500D02*
X69500Y-66500D01*
G54D20*
X68000Y-66500D02*
X65000Y-66500D01*
X53125Y-71875D02*
X53125Y-70625D01*
X53750Y-72500D02*
X53125Y-71875D01*
X55750Y-72500D02*
X54500Y-72500D01*
X60000Y-72500D02*
X56500Y-72500D01*
X61000Y-70500D02*
X61000Y-72500D01*
X63000Y-68500D02*
X61000Y-70500D01*
X65000Y-66500D02*
X64500Y-67000D01*
G54D23*
X53125Y-70625D02*
X54125Y-69625D01*
X53500Y-64000D02*
X53000Y-64500D01*
X69000Y-66500D02*
X69000Y-64750D01*
X69000Y-64750D02*
X68250Y-64000D01*
X68250Y-64000D02*
X64750Y-64000D01*
X64750Y-64000D02*
X53750Y-64000D01*
X53750Y-64000D02*
X53500Y-64000D01*
X71000Y-67500D02*
X69000Y-67500D01*
X53000Y-64500D02*
X52000Y-64500D01*
G54D22*
X77500Y-75000D02*
X76150Y-75000D01*
G54D23*
X62750Y-67750D02*
X56500Y-67750D01*
X55750Y-68000D02*
X55125Y-67375D01*
X55125Y-67375D02*
X55125Y-66625D01*
X56250Y-68000D02*
X55750Y-68000D01*
X56500Y-67750D02*
X56250Y-68000D01*
X64750Y-70000D02*
X64500Y-69500D01*
X62750Y-67750D02*
X62750Y-67750D01*
X64500Y-69500D02*
X62750Y-67750D01*
X64750Y-74000D02*
X64500Y-74000D01*
X64500Y-74000D02*
X63000Y-75500D01*
G54D22*
X51500Y-76000D02*
X51750Y-76250D01*
X50500Y-74000D02*
X50500Y-75000D01*
X51500Y-76000D02*
X50500Y-75000D01*
X61000Y-76250D02*
X61000Y-75500D01*
X51750Y-76250D02*
X61000Y-76250D01*
G54D23*
X50500Y-74000D02*
X50500Y-68750D01*
X56125Y-67375D02*
X56125Y-66625D01*
X56000Y-67500D02*
X56125Y-67375D01*
X51750Y-67500D02*
X54500Y-67500D01*
X50500Y-68750D02*
X51750Y-67500D01*
G54D21*
X56125Y-66625D02*
X56125Y-65625D01*
X56125Y-65625D02*
X56000Y-65500D01*
G54D23*
X48000Y-64500D02*
X46500Y-64500D01*
X56125Y-70625D02*
X56125Y-73625D01*
X56125Y-73625D02*
X57125Y-74625D01*
X56125Y-70625D02*
X56125Y-69625D01*
G54D21*
X58250Y-70750D02*
X57500Y-71500D01*
X56125Y-70875D02*
X56125Y-70625D01*
X56750Y-71500D02*
X56125Y-70875D01*
X57500Y-71500D02*
X56750Y-71500D01*
G54D23*
X54125Y-70625D02*
X54125Y-73625D01*
X54125Y-73625D02*
X53125Y-74625D01*
X54125Y-70625D02*
X55125Y-70625D01*
G54D21*
X53000Y-68750D02*
X54500Y-68750D01*
X55125Y-69375D02*
X55125Y-69625D01*
X54500Y-68750D02*
X55125Y-69375D01*
G54D23*
X55125Y-70625D02*
X55125Y-69625D01*
G54D22*
X50500Y-67000D02*
X48500Y-67000D01*
X48500Y-74000D02*
X46500Y-74000D01*
X77500Y-66750D02*
X74750Y-66750D01*
X74750Y-73750D02*
X72750Y-73750D01*
X71500Y-76250D02*
X72000Y-75750D01*
X71500Y-76250D02*
X62000Y-76250D01*
X62000Y-75500D02*
X62000Y-76250D01*
X72750Y-72000D02*
X72750Y-66750D01*
X72000Y-72750D02*
X72750Y-72000D01*
X72000Y-73000D02*
X72000Y-72750D01*
X72000Y-75750D02*
X72000Y-73000D01*
G54D23*
X66750Y-69500D02*
X65000Y-69500D01*
X58000Y-67500D02*
X57125Y-66625D01*
X63000Y-67500D02*
X58000Y-67500D01*
X65000Y-69500D02*
X63000Y-67500D01*
G54D21*
X66750Y-69500D02*
X66750Y-70500D01*
G54D23*
X68000Y-65500D02*
X66750Y-65500D01*
X76500Y-64500D02*
X76500Y-64750D01*
X71250Y-66500D02*
X71000Y-66500D01*
X72250Y-65500D02*
X71250Y-66500D01*
X75750Y-65500D02*
X72250Y-65500D01*
X76500Y-64750D02*
X75750Y-65500D01*
X75500Y-64500D02*
X75500Y-64750D01*
X71250Y-65250D02*
X71000Y-65500D01*
X75000Y-65250D02*
X71250Y-65250D01*
X75500Y-64750D02*
X75000Y-65250D01*
M02*
