G04 (created by PCBNEW (22-Jun-2014 BZR 4027)-stable) date Sun 11 Feb 2018 07:20:56 AM CST*
%MOIN*%
G04 Gerber Fmt 3.4, Leading zero omitted, Abs format*
%FSLAX34Y34*%
G01*
G70*
G90*
G04 APERTURE LIST*
%ADD10C,0.00590551*%
%ADD11C,0.008*%
%ADD12C,0.007*%
%ADD13C,0.0001*%
G04 APERTURE END LIST*
G54D10*
G54D11*
X59109Y-76411D02*
X59109Y-76011D01*
X59109Y-76202D02*
X58880Y-76202D01*
X58880Y-76411D02*
X58880Y-76011D01*
X58519Y-76411D02*
X58519Y-76202D01*
X58538Y-76164D01*
X58576Y-76145D01*
X58652Y-76145D01*
X58690Y-76164D01*
X58519Y-76392D02*
X58557Y-76411D01*
X58652Y-76411D01*
X58690Y-76392D01*
X58709Y-76354D01*
X58709Y-76316D01*
X58690Y-76278D01*
X58652Y-76259D01*
X58557Y-76259D01*
X58519Y-76240D01*
X58328Y-76411D02*
X58328Y-76145D01*
X58328Y-76183D02*
X58309Y-76164D01*
X58271Y-76145D01*
X58214Y-76145D01*
X58176Y-76164D01*
X58157Y-76202D01*
X58157Y-76411D01*
X58157Y-76202D02*
X58138Y-76164D01*
X58099Y-76145D01*
X58042Y-76145D01*
X58004Y-76164D01*
X57985Y-76202D01*
X57985Y-76411D01*
X57795Y-76411D02*
X57795Y-76145D01*
X57795Y-76183D02*
X57776Y-76164D01*
X57738Y-76145D01*
X57680Y-76145D01*
X57642Y-76164D01*
X57623Y-76202D01*
X57623Y-76411D01*
X57623Y-76202D02*
X57604Y-76164D01*
X57566Y-76145D01*
X57509Y-76145D01*
X57471Y-76164D01*
X57452Y-76202D01*
X57452Y-76411D01*
X57204Y-76411D02*
X57242Y-76392D01*
X57261Y-76373D01*
X57280Y-76335D01*
X57280Y-76221D01*
X57261Y-76183D01*
X57242Y-76164D01*
X57204Y-76145D01*
X57147Y-76145D01*
X57109Y-76164D01*
X57090Y-76183D01*
X57071Y-76221D01*
X57071Y-76335D01*
X57090Y-76373D01*
X57109Y-76392D01*
X57147Y-76411D01*
X57204Y-76411D01*
X56899Y-76145D02*
X56899Y-76411D01*
X56899Y-76183D02*
X56880Y-76164D01*
X56842Y-76145D01*
X56785Y-76145D01*
X56747Y-76164D01*
X56728Y-76202D01*
X56728Y-76411D01*
X56366Y-76411D02*
X56366Y-76011D01*
X56366Y-76392D02*
X56404Y-76411D01*
X56480Y-76411D01*
X56519Y-76392D01*
X56538Y-76373D01*
X56557Y-76335D01*
X56557Y-76221D01*
X56538Y-76183D01*
X56519Y-76164D01*
X56480Y-76145D01*
X56404Y-76145D01*
X56366Y-76164D01*
X55661Y-76411D02*
X55890Y-76411D01*
X55776Y-76411D02*
X55776Y-76011D01*
X55814Y-76069D01*
X55852Y-76107D01*
X55890Y-76126D01*
X55299Y-76011D02*
X55490Y-76011D01*
X55509Y-76202D01*
X55490Y-76183D01*
X55452Y-76164D01*
X55357Y-76164D01*
X55319Y-76183D01*
X55299Y-76202D01*
X55280Y-76240D01*
X55280Y-76335D01*
X55299Y-76373D01*
X55319Y-76392D01*
X55357Y-76411D01*
X55452Y-76411D01*
X55490Y-76392D01*
X55509Y-76373D01*
X55090Y-76411D02*
X55014Y-76411D01*
X54976Y-76392D01*
X54957Y-76373D01*
X54919Y-76316D01*
X54899Y-76240D01*
X54899Y-76088D01*
X54919Y-76050D01*
X54938Y-76030D01*
X54976Y-76011D01*
X55052Y-76011D01*
X55090Y-76030D01*
X55109Y-76050D01*
X55128Y-76088D01*
X55128Y-76183D01*
X55109Y-76221D01*
X55090Y-76240D01*
X55052Y-76259D01*
X54976Y-76259D01*
X54938Y-76240D01*
X54919Y-76221D01*
X54899Y-76183D01*
X54652Y-76011D02*
X54614Y-76011D01*
X54576Y-76030D01*
X54557Y-76050D01*
X54538Y-76088D01*
X54519Y-76164D01*
X54519Y-76259D01*
X54538Y-76335D01*
X54557Y-76373D01*
X54576Y-76392D01*
X54614Y-76411D01*
X54652Y-76411D01*
X54690Y-76392D01*
X54709Y-76373D01*
X54728Y-76335D01*
X54747Y-76259D01*
X54747Y-76164D01*
X54728Y-76088D01*
X54709Y-76050D01*
X54690Y-76030D01*
X54652Y-76011D01*
X54214Y-76202D02*
X54157Y-76221D01*
X54138Y-76240D01*
X54119Y-76278D01*
X54119Y-76335D01*
X54138Y-76373D01*
X54157Y-76392D01*
X54195Y-76411D01*
X54347Y-76411D01*
X54347Y-76011D01*
X54214Y-76011D01*
X54176Y-76030D01*
X54157Y-76050D01*
X54138Y-76088D01*
X54138Y-76126D01*
X54157Y-76164D01*
X54176Y-76183D01*
X54214Y-76202D01*
X54347Y-76202D01*
X53699Y-76011D02*
X53471Y-76011D01*
X53585Y-76411D02*
X53585Y-76011D01*
X53185Y-76392D02*
X53223Y-76411D01*
X53299Y-76411D01*
X53338Y-76392D01*
X53357Y-76354D01*
X53357Y-76202D01*
X53338Y-76164D01*
X53299Y-76145D01*
X53223Y-76145D01*
X53185Y-76164D01*
X53166Y-76202D01*
X53166Y-76240D01*
X53357Y-76278D01*
X52995Y-76411D02*
X52995Y-76145D01*
X52995Y-76183D02*
X52976Y-76164D01*
X52938Y-76145D01*
X52880Y-76145D01*
X52842Y-76164D01*
X52823Y-76202D01*
X52823Y-76411D01*
X52823Y-76202D02*
X52804Y-76164D01*
X52766Y-76145D01*
X52709Y-76145D01*
X52671Y-76164D01*
X52652Y-76202D01*
X52652Y-76411D01*
X52461Y-76145D02*
X52461Y-76545D01*
X52461Y-76164D02*
X52423Y-76145D01*
X52347Y-76145D01*
X52309Y-76164D01*
X52290Y-76183D01*
X52271Y-76221D01*
X52271Y-76335D01*
X52290Y-76373D01*
X52309Y-76392D01*
X52347Y-76411D01*
X52423Y-76411D01*
X52461Y-76392D01*
X51947Y-76392D02*
X51985Y-76411D01*
X52061Y-76411D01*
X52099Y-76392D01*
X52119Y-76354D01*
X52119Y-76202D01*
X52099Y-76164D01*
X52061Y-76145D01*
X51985Y-76145D01*
X51947Y-76164D01*
X51928Y-76202D01*
X51928Y-76240D01*
X52119Y-76278D01*
X51757Y-76411D02*
X51757Y-76145D01*
X51757Y-76221D02*
X51738Y-76183D01*
X51719Y-76164D01*
X51680Y-76145D01*
X51642Y-76145D01*
X51338Y-76411D02*
X51338Y-76202D01*
X51357Y-76164D01*
X51395Y-76145D01*
X51471Y-76145D01*
X51509Y-76164D01*
X51338Y-76392D02*
X51376Y-76411D01*
X51471Y-76411D01*
X51509Y-76392D01*
X51528Y-76354D01*
X51528Y-76316D01*
X51509Y-76278D01*
X51471Y-76259D01*
X51376Y-76259D01*
X51338Y-76240D01*
X51204Y-76145D02*
X51052Y-76145D01*
X51147Y-76011D02*
X51147Y-76354D01*
X51128Y-76392D01*
X51090Y-76411D01*
X51052Y-76411D01*
X50747Y-76145D02*
X50747Y-76411D01*
X50919Y-76145D02*
X50919Y-76354D01*
X50899Y-76392D01*
X50861Y-76411D01*
X50804Y-76411D01*
X50766Y-76392D01*
X50747Y-76373D01*
X50557Y-76411D02*
X50557Y-76145D01*
X50557Y-76221D02*
X50538Y-76183D01*
X50519Y-76164D01*
X50480Y-76145D01*
X50442Y-76145D01*
X50157Y-76392D02*
X50195Y-76411D01*
X50271Y-76411D01*
X50309Y-76392D01*
X50328Y-76354D01*
X50328Y-76202D01*
X50309Y-76164D01*
X50271Y-76145D01*
X50195Y-76145D01*
X50157Y-76164D01*
X50138Y-76202D01*
X50138Y-76240D01*
X50328Y-76278D01*
X49433Y-76373D02*
X49452Y-76392D01*
X49509Y-76411D01*
X49547Y-76411D01*
X49604Y-76392D01*
X49642Y-76354D01*
X49661Y-76316D01*
X49680Y-76240D01*
X49680Y-76183D01*
X49661Y-76107D01*
X49642Y-76069D01*
X49604Y-76030D01*
X49547Y-76011D01*
X49509Y-76011D01*
X49452Y-76030D01*
X49433Y-76050D01*
X49204Y-76411D02*
X49242Y-76392D01*
X49261Y-76373D01*
X49280Y-76335D01*
X49280Y-76221D01*
X49261Y-76183D01*
X49242Y-76164D01*
X49204Y-76145D01*
X49147Y-76145D01*
X49109Y-76164D01*
X49090Y-76183D01*
X49071Y-76221D01*
X49071Y-76335D01*
X49090Y-76373D01*
X49109Y-76392D01*
X49147Y-76411D01*
X49204Y-76411D01*
X48899Y-76145D02*
X48899Y-76411D01*
X48899Y-76183D02*
X48880Y-76164D01*
X48842Y-76145D01*
X48785Y-76145D01*
X48747Y-76164D01*
X48728Y-76202D01*
X48728Y-76411D01*
X48595Y-76145D02*
X48442Y-76145D01*
X48538Y-76011D02*
X48538Y-76354D01*
X48519Y-76392D01*
X48480Y-76411D01*
X48442Y-76411D01*
X48309Y-76411D02*
X48309Y-76145D01*
X48309Y-76221D02*
X48290Y-76183D01*
X48271Y-76164D01*
X48233Y-76145D01*
X48195Y-76145D01*
X48004Y-76411D02*
X48042Y-76392D01*
X48061Y-76373D01*
X48080Y-76335D01*
X48080Y-76221D01*
X48061Y-76183D01*
X48042Y-76164D01*
X48004Y-76145D01*
X47947Y-76145D01*
X47909Y-76164D01*
X47890Y-76183D01*
X47871Y-76221D01*
X47871Y-76335D01*
X47890Y-76373D01*
X47909Y-76392D01*
X47947Y-76411D01*
X48004Y-76411D01*
X47642Y-76411D02*
X47680Y-76392D01*
X47700Y-76354D01*
X47700Y-76011D01*
X47433Y-76411D02*
X47471Y-76392D01*
X47490Y-76354D01*
X47490Y-76011D01*
X47128Y-76392D02*
X47166Y-76411D01*
X47242Y-76411D01*
X47280Y-76392D01*
X47300Y-76354D01*
X47300Y-76202D01*
X47280Y-76164D01*
X47242Y-76145D01*
X47166Y-76145D01*
X47128Y-76164D01*
X47109Y-76202D01*
X47109Y-76240D01*
X47300Y-76278D01*
X46938Y-76411D02*
X46938Y-76145D01*
X46938Y-76221D02*
X46919Y-76183D01*
X46900Y-76164D01*
X46861Y-76145D01*
X46823Y-76145D01*
X46423Y-76145D02*
X46328Y-76411D01*
X46233Y-76145D01*
X45871Y-76411D02*
X46100Y-76411D01*
X45985Y-76411D02*
X45985Y-76011D01*
X46023Y-76069D01*
X46061Y-76107D01*
X46100Y-76126D01*
G54D12*
X64066Y-64158D02*
X64066Y-64441D01*
X64083Y-64475D01*
X64099Y-64491D01*
X64133Y-64508D01*
X64183Y-64508D01*
X64216Y-64491D01*
X64066Y-64375D02*
X64099Y-64391D01*
X64166Y-64391D01*
X64199Y-64375D01*
X64216Y-64358D01*
X64233Y-64325D01*
X64233Y-64225D01*
X64216Y-64191D01*
X64199Y-64175D01*
X64166Y-64158D01*
X64099Y-64158D01*
X64066Y-64175D01*
X63899Y-64391D02*
X63899Y-64158D01*
X63899Y-64041D02*
X63916Y-64058D01*
X63899Y-64075D01*
X63883Y-64058D01*
X63899Y-64041D01*
X63899Y-64075D01*
X63783Y-64158D02*
X63649Y-64158D01*
X63733Y-64041D02*
X63733Y-64341D01*
X63716Y-64375D01*
X63683Y-64391D01*
X63649Y-64391D01*
X63533Y-64391D02*
X63533Y-64041D01*
X63383Y-64391D02*
X63383Y-64208D01*
X63399Y-64175D01*
X63433Y-64158D01*
X63483Y-64158D01*
X63516Y-64175D01*
X63533Y-64191D01*
X63066Y-64158D02*
X63066Y-64391D01*
X63216Y-64158D02*
X63216Y-64341D01*
X63199Y-64375D01*
X63166Y-64391D01*
X63116Y-64391D01*
X63083Y-64375D01*
X63066Y-64358D01*
X62899Y-64391D02*
X62899Y-64041D01*
X62899Y-64175D02*
X62866Y-64158D01*
X62799Y-64158D01*
X62766Y-64175D01*
X62749Y-64191D01*
X62733Y-64225D01*
X62733Y-64325D01*
X62749Y-64358D01*
X62766Y-64375D01*
X62799Y-64391D01*
X62866Y-64391D01*
X62899Y-64375D01*
X62583Y-64358D02*
X62566Y-64375D01*
X62583Y-64391D01*
X62600Y-64375D01*
X62583Y-64358D01*
X62583Y-64391D01*
X62266Y-64375D02*
X62300Y-64391D01*
X62366Y-64391D01*
X62400Y-64375D01*
X62416Y-64358D01*
X62433Y-64325D01*
X62433Y-64225D01*
X62416Y-64191D01*
X62400Y-64175D01*
X62366Y-64158D01*
X62300Y-64158D01*
X62266Y-64175D01*
X62066Y-64391D02*
X62100Y-64375D01*
X62116Y-64358D01*
X62133Y-64325D01*
X62133Y-64225D01*
X62116Y-64191D01*
X62100Y-64175D01*
X62066Y-64158D01*
X62016Y-64158D01*
X61983Y-64175D01*
X61966Y-64191D01*
X61950Y-64225D01*
X61950Y-64325D01*
X61966Y-64358D01*
X61983Y-64375D01*
X62016Y-64391D01*
X62066Y-64391D01*
X61800Y-64391D02*
X61800Y-64158D01*
X61800Y-64191D02*
X61783Y-64175D01*
X61750Y-64158D01*
X61700Y-64158D01*
X61666Y-64175D01*
X61650Y-64208D01*
X61650Y-64391D01*
X61650Y-64208D02*
X61633Y-64175D01*
X61600Y-64158D01*
X61550Y-64158D01*
X61516Y-64175D01*
X61500Y-64208D01*
X61500Y-64391D01*
X61083Y-64025D02*
X61383Y-64475D01*
X60966Y-64158D02*
X60966Y-64508D01*
X60966Y-64175D02*
X60933Y-64158D01*
X60866Y-64158D01*
X60833Y-64175D01*
X60816Y-64191D01*
X60800Y-64225D01*
X60800Y-64325D01*
X60816Y-64358D01*
X60833Y-64375D01*
X60866Y-64391D01*
X60933Y-64391D01*
X60966Y-64375D01*
X60516Y-64375D02*
X60550Y-64391D01*
X60616Y-64391D01*
X60650Y-64375D01*
X60666Y-64341D01*
X60666Y-64208D01*
X60650Y-64175D01*
X60616Y-64158D01*
X60550Y-64158D01*
X60516Y-64175D01*
X60500Y-64208D01*
X60500Y-64241D01*
X60666Y-64275D01*
X60350Y-64158D02*
X60350Y-64508D01*
X60350Y-64175D02*
X60316Y-64158D01*
X60250Y-64158D01*
X60216Y-64175D01*
X60200Y-64191D01*
X60183Y-64225D01*
X60183Y-64325D01*
X60200Y-64358D01*
X60216Y-64375D01*
X60250Y-64391D01*
X60316Y-64391D01*
X60350Y-64375D01*
X59883Y-64391D02*
X59883Y-64208D01*
X59900Y-64175D01*
X59933Y-64158D01*
X60000Y-64158D01*
X60033Y-64175D01*
X59883Y-64375D02*
X59916Y-64391D01*
X60000Y-64391D01*
X60033Y-64375D01*
X60050Y-64341D01*
X60050Y-64308D01*
X60033Y-64275D01*
X60000Y-64258D01*
X59916Y-64258D01*
X59883Y-64241D01*
X59733Y-64375D02*
X59700Y-64391D01*
X59633Y-64391D01*
X59600Y-64375D01*
X59583Y-64341D01*
X59583Y-64325D01*
X59600Y-64291D01*
X59633Y-64275D01*
X59683Y-64275D01*
X59716Y-64258D01*
X59733Y-64225D01*
X59733Y-64208D01*
X59716Y-64175D01*
X59683Y-64158D01*
X59633Y-64158D01*
X59600Y-64175D01*
X59383Y-64391D02*
X59416Y-64375D01*
X59433Y-64341D01*
X59433Y-64041D01*
X59100Y-64391D02*
X59100Y-64208D01*
X59116Y-64175D01*
X59150Y-64158D01*
X59216Y-64158D01*
X59250Y-64175D01*
X59100Y-64375D02*
X59133Y-64391D01*
X59216Y-64391D01*
X59250Y-64375D01*
X59266Y-64341D01*
X59266Y-64308D01*
X59250Y-64275D01*
X59216Y-64258D01*
X59133Y-64258D01*
X59100Y-64241D01*
X58933Y-64391D02*
X58933Y-64041D01*
X58933Y-64175D02*
X58900Y-64158D01*
X58833Y-64158D01*
X58800Y-64175D01*
X58783Y-64191D01*
X58766Y-64225D01*
X58766Y-64325D01*
X58783Y-64358D01*
X58800Y-64375D01*
X58833Y-64391D01*
X58900Y-64391D01*
X58933Y-64375D01*
X58633Y-64375D02*
X58600Y-64391D01*
X58533Y-64391D01*
X58500Y-64375D01*
X58483Y-64341D01*
X58483Y-64325D01*
X58500Y-64291D01*
X58533Y-64275D01*
X58583Y-64275D01*
X58616Y-64258D01*
X58633Y-64225D01*
X58633Y-64208D01*
X58616Y-64175D01*
X58583Y-64158D01*
X58533Y-64158D01*
X58500Y-64175D01*
X58083Y-64025D02*
X58383Y-64475D01*
X57783Y-64391D02*
X57983Y-64391D01*
X57883Y-64391D02*
X57883Y-64041D01*
X57916Y-64091D01*
X57950Y-64125D01*
X57983Y-64141D01*
X57466Y-64041D02*
X57633Y-64041D01*
X57650Y-64208D01*
X57633Y-64191D01*
X57600Y-64175D01*
X57516Y-64175D01*
X57483Y-64191D01*
X57466Y-64208D01*
X57450Y-64241D01*
X57450Y-64325D01*
X57466Y-64358D01*
X57483Y-64375D01*
X57516Y-64391D01*
X57600Y-64391D01*
X57633Y-64375D01*
X57650Y-64358D01*
X57283Y-64391D02*
X57216Y-64391D01*
X57183Y-64375D01*
X57166Y-64358D01*
X57133Y-64308D01*
X57116Y-64241D01*
X57116Y-64108D01*
X57133Y-64075D01*
X57150Y-64058D01*
X57183Y-64041D01*
X57250Y-64041D01*
X57283Y-64058D01*
X57300Y-64075D01*
X57316Y-64108D01*
X57316Y-64191D01*
X57300Y-64225D01*
X57283Y-64241D01*
X57250Y-64258D01*
X57183Y-64258D01*
X57150Y-64241D01*
X57133Y-64225D01*
X57116Y-64191D01*
X56900Y-64041D02*
X56866Y-64041D01*
X56833Y-64058D01*
X56816Y-64075D01*
X56800Y-64108D01*
X56783Y-64175D01*
X56783Y-64258D01*
X56800Y-64325D01*
X56816Y-64358D01*
X56833Y-64375D01*
X56866Y-64391D01*
X56900Y-64391D01*
X56933Y-64375D01*
X56950Y-64358D01*
X56966Y-64325D01*
X56983Y-64258D01*
X56983Y-64175D01*
X56966Y-64108D01*
X56950Y-64075D01*
X56933Y-64058D01*
X56900Y-64041D01*
X56633Y-64391D02*
X56633Y-64041D01*
X56633Y-64175D02*
X56600Y-64158D01*
X56533Y-64158D01*
X56500Y-64175D01*
X56483Y-64191D01*
X56466Y-64225D01*
X56466Y-64325D01*
X56483Y-64358D01*
X56500Y-64375D01*
X56533Y-64391D01*
X56600Y-64391D01*
X56633Y-64375D01*
X56316Y-64258D02*
X56050Y-64258D01*
X55883Y-64391D02*
X55883Y-64158D01*
X55883Y-64041D02*
X55900Y-64058D01*
X55883Y-64075D01*
X55866Y-64058D01*
X55883Y-64041D01*
X55883Y-64075D01*
X55733Y-64375D02*
X55700Y-64391D01*
X55633Y-64391D01*
X55600Y-64375D01*
X55583Y-64341D01*
X55583Y-64325D01*
X55600Y-64291D01*
X55633Y-64275D01*
X55683Y-64275D01*
X55716Y-64258D01*
X55733Y-64225D01*
X55733Y-64208D01*
X55716Y-64175D01*
X55683Y-64158D01*
X55633Y-64158D01*
X55600Y-64175D01*
X55383Y-64391D02*
X55416Y-64375D01*
X55433Y-64358D01*
X55450Y-64325D01*
X55450Y-64225D01*
X55433Y-64191D01*
X55416Y-64175D01*
X55383Y-64158D01*
X55333Y-64158D01*
X55300Y-64175D01*
X55283Y-64191D01*
X55266Y-64225D01*
X55266Y-64325D01*
X55283Y-64358D01*
X55300Y-64375D01*
X55333Y-64391D01*
X55383Y-64391D01*
X55166Y-64158D02*
X55033Y-64158D01*
X55116Y-64041D02*
X55116Y-64341D01*
X55100Y-64375D01*
X55066Y-64391D01*
X55033Y-64391D01*
X54916Y-64391D02*
X54916Y-64041D01*
X54766Y-64391D02*
X54766Y-64208D01*
X54783Y-64175D01*
X54816Y-64158D01*
X54866Y-64158D01*
X54900Y-64175D01*
X54916Y-64191D01*
X54466Y-64375D02*
X54500Y-64391D01*
X54566Y-64391D01*
X54600Y-64375D01*
X54616Y-64341D01*
X54616Y-64208D01*
X54600Y-64175D01*
X54566Y-64158D01*
X54500Y-64158D01*
X54466Y-64175D01*
X54450Y-64208D01*
X54450Y-64241D01*
X54616Y-64275D01*
X54300Y-64391D02*
X54300Y-64158D01*
X54300Y-64225D02*
X54283Y-64191D01*
X54266Y-64175D01*
X54233Y-64158D01*
X54200Y-64158D01*
X54083Y-64391D02*
X54083Y-64158D01*
X54083Y-64191D02*
X54066Y-64175D01*
X54033Y-64158D01*
X53983Y-64158D01*
X53950Y-64175D01*
X53933Y-64208D01*
X53933Y-64391D01*
X53933Y-64208D02*
X53916Y-64175D01*
X53883Y-64158D01*
X53833Y-64158D01*
X53800Y-64175D01*
X53783Y-64208D01*
X53783Y-64391D01*
X53466Y-64391D02*
X53466Y-64208D01*
X53483Y-64175D01*
X53516Y-64158D01*
X53583Y-64158D01*
X53616Y-64175D01*
X53466Y-64375D02*
X53500Y-64391D01*
X53583Y-64391D01*
X53616Y-64375D01*
X53633Y-64341D01*
X53633Y-64308D01*
X53616Y-64275D01*
X53583Y-64258D01*
X53500Y-64258D01*
X53466Y-64241D01*
X53250Y-64391D02*
X53283Y-64375D01*
X53300Y-64341D01*
X53300Y-64041D01*
G54D11*
X75247Y-75161D02*
X75476Y-75161D01*
X75361Y-75161D02*
X75361Y-74761D01*
X75399Y-74819D01*
X75438Y-74857D01*
X75476Y-74876D01*
X75095Y-74800D02*
X75076Y-74780D01*
X75038Y-74761D01*
X74942Y-74761D01*
X74904Y-74780D01*
X74885Y-74800D01*
X74866Y-74838D01*
X74866Y-74876D01*
X74885Y-74933D01*
X75114Y-75161D01*
X74866Y-75161D01*
X74752Y-74761D02*
X74619Y-75161D01*
X74485Y-74761D01*
X75304Y-75780D02*
X75342Y-75761D01*
X75400Y-75761D01*
X75457Y-75780D01*
X75495Y-75819D01*
X75514Y-75857D01*
X75533Y-75933D01*
X75533Y-75990D01*
X75514Y-76066D01*
X75495Y-76104D01*
X75457Y-76142D01*
X75400Y-76161D01*
X75361Y-76161D01*
X75304Y-76142D01*
X75285Y-76123D01*
X75285Y-75990D01*
X75361Y-75990D01*
X75114Y-76161D02*
X75114Y-75761D01*
X74885Y-76161D01*
X74885Y-75761D01*
X74695Y-76161D02*
X74695Y-75761D01*
X74599Y-75761D01*
X74542Y-75780D01*
X74504Y-75819D01*
X74485Y-75857D01*
X74466Y-75933D01*
X74466Y-75990D01*
X74485Y-76066D01*
X74504Y-76104D01*
X74542Y-76142D01*
X74599Y-76161D01*
X74695Y-76161D01*
X74261Y-65673D02*
X74261Y-65483D01*
X74452Y-65464D01*
X74433Y-65483D01*
X74414Y-65521D01*
X74414Y-65616D01*
X74433Y-65654D01*
X74452Y-65673D01*
X74490Y-65692D01*
X74585Y-65692D01*
X74623Y-65673D01*
X74642Y-65654D01*
X74661Y-65616D01*
X74661Y-65521D01*
X74642Y-65483D01*
X74623Y-65464D01*
X74261Y-65807D02*
X74661Y-65940D01*
X74261Y-66073D01*
X75261Y-65445D02*
X75261Y-65673D01*
X75661Y-65559D02*
X75261Y-65559D01*
X75261Y-65769D02*
X75661Y-66035D01*
X75261Y-66035D02*
X75661Y-65769D01*
X76661Y-65683D02*
X76471Y-65550D01*
X76661Y-65454D02*
X76261Y-65454D01*
X76261Y-65607D01*
X76280Y-65645D01*
X76300Y-65664D01*
X76338Y-65683D01*
X76395Y-65683D01*
X76433Y-65664D01*
X76452Y-65645D01*
X76471Y-65607D01*
X76471Y-65454D01*
X76261Y-65816D02*
X76661Y-66083D01*
X76261Y-66083D02*
X76661Y-65816D01*
X77280Y-65445D02*
X77261Y-65407D01*
X77261Y-65350D01*
X77280Y-65292D01*
X77319Y-65254D01*
X77357Y-65235D01*
X77433Y-65216D01*
X77490Y-65216D01*
X77566Y-65235D01*
X77604Y-65254D01*
X77642Y-65292D01*
X77661Y-65350D01*
X77661Y-65388D01*
X77642Y-65445D01*
X77623Y-65464D01*
X77490Y-65464D01*
X77490Y-65388D01*
X77661Y-65635D02*
X77261Y-65635D01*
X77661Y-65864D01*
X77261Y-65864D01*
X77661Y-66054D02*
X77261Y-66054D01*
X77261Y-66150D01*
X77280Y-66207D01*
X77319Y-66245D01*
X77357Y-66264D01*
X77433Y-66283D01*
X77490Y-66283D01*
X77566Y-66264D01*
X77604Y-66245D01*
X77642Y-66207D01*
X77661Y-66150D01*
X77661Y-66054D01*
X46757Y-66411D02*
X46947Y-66411D01*
X46947Y-66011D01*
X46623Y-66202D02*
X46490Y-66202D01*
X46433Y-66411D02*
X46623Y-66411D01*
X46623Y-66011D01*
X46433Y-66011D01*
X46261Y-66411D02*
X46261Y-66011D01*
X46166Y-66011D01*
X46109Y-66030D01*
X46071Y-66069D01*
X46052Y-66107D01*
X46033Y-66183D01*
X46033Y-66240D01*
X46052Y-66316D01*
X46071Y-66354D01*
X46109Y-66392D01*
X46166Y-66411D01*
X46261Y-66411D01*
X47402Y-65509D02*
X47097Y-65509D01*
X47402Y-64509D02*
X47097Y-64509D01*
X47250Y-64661D02*
X47250Y-64357D01*
G54D13*
G36*
X73227Y-76207D02*
X73219Y-76203D01*
X73200Y-76191D01*
X73174Y-76174D01*
X73143Y-76153D01*
X73112Y-76132D01*
X73086Y-76115D01*
X73068Y-76103D01*
X73061Y-76099D01*
X73057Y-76100D01*
X73042Y-76108D01*
X73020Y-76119D01*
X73008Y-76125D01*
X72988Y-76134D01*
X72978Y-76136D01*
X72977Y-76133D01*
X72969Y-76118D01*
X72958Y-76092D01*
X72943Y-76058D01*
X72926Y-76018D01*
X72908Y-75975D01*
X72890Y-75931D01*
X72872Y-75889D01*
X72857Y-75851D01*
X72844Y-75821D01*
X72836Y-75799D01*
X72833Y-75790D01*
X72834Y-75788D01*
X72844Y-75779D01*
X72861Y-75766D01*
X72899Y-75735D01*
X72935Y-75689D01*
X72958Y-75637D01*
X72965Y-75579D01*
X72959Y-75526D01*
X72938Y-75475D01*
X72902Y-75428D01*
X72858Y-75394D01*
X72807Y-75372D01*
X72750Y-75365D01*
X72695Y-75371D01*
X72643Y-75392D01*
X72596Y-75427D01*
X72577Y-75450D01*
X72550Y-75497D01*
X72534Y-75547D01*
X72533Y-75559D01*
X72535Y-75615D01*
X72551Y-75668D01*
X72580Y-75715D01*
X72621Y-75754D01*
X72626Y-75758D01*
X72645Y-75772D01*
X72657Y-75781D01*
X72667Y-75789D01*
X72597Y-75959D01*
X72586Y-75986D01*
X72566Y-76032D01*
X72549Y-76072D01*
X72536Y-76104D01*
X72526Y-76125D01*
X72522Y-76134D01*
X72522Y-76134D01*
X72516Y-76135D01*
X72503Y-76130D01*
X72479Y-76119D01*
X72463Y-76111D01*
X72445Y-76102D01*
X72437Y-76099D01*
X72430Y-76103D01*
X72413Y-76114D01*
X72388Y-76131D01*
X72358Y-76151D01*
X72329Y-76171D01*
X72302Y-76189D01*
X72283Y-76201D01*
X72273Y-76206D01*
X72272Y-76206D01*
X72264Y-76201D01*
X72248Y-76189D01*
X72225Y-76167D01*
X72193Y-76135D01*
X72188Y-76130D01*
X72161Y-76102D01*
X72139Y-76079D01*
X72124Y-76063D01*
X72119Y-76056D01*
X72119Y-76056D01*
X72124Y-76046D01*
X72136Y-76027D01*
X72154Y-76000D01*
X72175Y-75969D01*
X72231Y-75887D01*
X72200Y-75810D01*
X72191Y-75787D01*
X72179Y-75758D01*
X72170Y-75738D01*
X72165Y-75729D01*
X72157Y-75726D01*
X72136Y-75721D01*
X72105Y-75714D01*
X72069Y-75708D01*
X72034Y-75701D01*
X72003Y-75695D01*
X71980Y-75691D01*
X71970Y-75689D01*
X71968Y-75687D01*
X71966Y-75682D01*
X71964Y-75672D01*
X71964Y-75653D01*
X71963Y-75623D01*
X71963Y-75579D01*
X71963Y-75575D01*
X71964Y-75533D01*
X71964Y-75500D01*
X71965Y-75479D01*
X71967Y-75471D01*
X71967Y-75471D01*
X71977Y-75468D01*
X71999Y-75464D01*
X72030Y-75457D01*
X72068Y-75450D01*
X72070Y-75450D01*
X72107Y-75443D01*
X72138Y-75436D01*
X72160Y-75431D01*
X72169Y-75428D01*
X72171Y-75426D01*
X72179Y-75411D01*
X72190Y-75388D01*
X72202Y-75360D01*
X72214Y-75331D01*
X72225Y-75304D01*
X72232Y-75285D01*
X72234Y-75276D01*
X72234Y-75276D01*
X72228Y-75267D01*
X72215Y-75247D01*
X72197Y-75221D01*
X72175Y-75189D01*
X72174Y-75186D01*
X72152Y-75155D01*
X72135Y-75128D01*
X72123Y-75109D01*
X72119Y-75101D01*
X72119Y-75100D01*
X72126Y-75091D01*
X72142Y-75073D01*
X72165Y-75049D01*
X72193Y-75021D01*
X72202Y-75013D01*
X72232Y-74983D01*
X72253Y-74963D01*
X72267Y-74953D01*
X72273Y-74950D01*
X72273Y-74951D01*
X72283Y-74956D01*
X72303Y-74969D01*
X72330Y-74988D01*
X72362Y-75009D01*
X72364Y-75011D01*
X72395Y-75032D01*
X72421Y-75050D01*
X72440Y-75062D01*
X72448Y-75067D01*
X72450Y-75067D01*
X72462Y-75063D01*
X72485Y-75056D01*
X72512Y-75045D01*
X72541Y-75033D01*
X72568Y-75022D01*
X72588Y-75013D01*
X72597Y-75008D01*
X72597Y-75007D01*
X72601Y-74996D01*
X72606Y-74972D01*
X72613Y-74940D01*
X72620Y-74901D01*
X72621Y-74895D01*
X72628Y-74858D01*
X72634Y-74827D01*
X72639Y-74805D01*
X72641Y-74796D01*
X72646Y-74795D01*
X72665Y-74794D01*
X72693Y-74793D01*
X72727Y-74793D01*
X72762Y-74793D01*
X72796Y-74794D01*
X72826Y-74795D01*
X72847Y-74796D01*
X72856Y-74798D01*
X72857Y-74799D01*
X72860Y-74810D01*
X72865Y-74834D01*
X72872Y-74866D01*
X72879Y-74905D01*
X72880Y-74912D01*
X72887Y-74949D01*
X72894Y-74980D01*
X72898Y-75001D01*
X72901Y-75009D01*
X72904Y-75011D01*
X72919Y-75018D01*
X72944Y-75028D01*
X72976Y-75041D01*
X73048Y-75070D01*
X73136Y-75009D01*
X73144Y-75004D01*
X73176Y-74982D01*
X73202Y-74965D01*
X73220Y-74953D01*
X73228Y-74949D01*
X73228Y-74949D01*
X73237Y-74957D01*
X73255Y-74973D01*
X73279Y-74997D01*
X73306Y-75024D01*
X73327Y-75045D01*
X73351Y-75070D01*
X73367Y-75086D01*
X73375Y-75097D01*
X73378Y-75104D01*
X73377Y-75108D01*
X73372Y-75117D01*
X73359Y-75136D01*
X73341Y-75163D01*
X73319Y-75194D01*
X73301Y-75221D01*
X73282Y-75250D01*
X73270Y-75271D01*
X73265Y-75282D01*
X73266Y-75286D01*
X73273Y-75303D01*
X73283Y-75330D01*
X73296Y-75361D01*
X73327Y-75431D01*
X73373Y-75439D01*
X73401Y-75445D01*
X73440Y-75452D01*
X73477Y-75459D01*
X73535Y-75471D01*
X73537Y-75683D01*
X73528Y-75687D01*
X73519Y-75690D01*
X73498Y-75694D01*
X73467Y-75700D01*
X73431Y-75707D01*
X73400Y-75713D01*
X73369Y-75719D01*
X73347Y-75723D01*
X73337Y-75725D01*
X73334Y-75729D01*
X73326Y-75744D01*
X73315Y-75768D01*
X73303Y-75797D01*
X73291Y-75826D01*
X73280Y-75854D01*
X73272Y-75875D01*
X73269Y-75886D01*
X73273Y-75894D01*
X73285Y-75912D01*
X73302Y-75938D01*
X73323Y-75969D01*
X73345Y-76000D01*
X73362Y-76027D01*
X73375Y-76046D01*
X73380Y-76054D01*
X73377Y-76060D01*
X73365Y-76075D01*
X73342Y-76099D01*
X73307Y-76134D01*
X73301Y-76139D01*
X73274Y-76166D01*
X73250Y-76187D01*
X73234Y-76202D01*
X73227Y-76207D01*
X73227Y-76207D01*
G37*
M02*
